<svg id="htp.svg" xmlns="http://www.w3.org/2000/svg" width="98" height="87" viewBox="0 0 98 87">
<defs>
    <style>
      .cls-1, .cls-2 {
        fill: #2678bd;
      }

      .cls-1 {
        fill-rule: evenodd;
      }

      .cls-2 {
        opacity: 0;
      }
    </style>
  </defs>
  <path id="htp.svg-2" data-name="htp.svg" class="cls-1" d="M73.774,84.164l-0.029-13.03,11.244-6.559L85,77.653Zm-0.059-27.1,11.262-6.57,0.011,13.451L73.744,70.364Zm2.664,9.018,1.951-1.136V62.085l0.587-.342,2.043,1.669L83.387,62l-2.8-2.084,2.58-5.085L80.8,56.206l-1.887,3.848L78.33,60.4V57.648l-1.951,1.136v7.3ZM73.684,42.958l11.28-6.581,0.011,13.48L73.713,56.291Zm2.695,8.979L78.33,50.8V48.682L79.85,47.8c0.576-.334.8-0.137,0.8,0.445v1.206l1.951-1.136V46.843a0.674,0.674,0,0,0-.328-0.727,1.42,1.42,0,0,0-.994.2V46.241a3.6,3.6,0,0,0,1.105-1.335,4.931,4.931,0,0,0,.216-1.712c0-.83-0.194-1.293-0.587-1.39a3.1,3.1,0,0,0-1.867.64l-3.773,2.2v7.3Zm4.275-7.342a2.71,2.71,0,0,1-.128,1.006,1.605,1.605,0,0,1-.677.6l-1.519.885V45.1l1.519-.884a0.842,0.842,0,0,1,.643-0.2A0.65,0.65,0,0,1,80.654,44.595Zm-7-15.763,11.3-6.57,0.011,13.482L73.682,42.188Zm4.164,8.125,0.362-1.46,2.628-1.53L81.189,35l1.993-1.161-2.227-6-2.97,1.728-2.2,8.577Zm2.594-4.169-1.8,1.052,0.907-3.706ZM73.5,28.034V15.015l11.444-6.6,0.011,13.243-11.3,6.487Zm2.884-4.381,1.951-1.136V20.5l1.732-1.008a5.476,5.476,0,0,0,2.025-1.762,4.805,4.805,0,0,0,.479-2.392q0-1.431-.567-1.674a2.518,2.518,0,0,0-1.935.551l-3.685,2.145v7.3Zm4.027-7.817a0.953,0.953,0,0,1,.147.691,2.129,2.129,0,0,1-.162.983,1.942,1.942,0,0,1-.72.608L78.33,18.9V16.82l1.341-.781A0.847,0.847,0,0,1,80.406,15.836ZM61.855,8.2L73.4,1.6,84.669,8.04,73.205,14.614ZM60.918,21.659l-11.359-6.43L61.238,8.553,72.532,15Zm-1.57-9.571,2.524,1.429-2.7,1.549L56.65,13.638l-2.063,1.184,6.707,3.8,2.063-1.184-2.628-1.49,2.7-1.548,2.628,1.489L68.118,14.7l-6.707-3.8ZM48.612,28.715l-11.377-6.44,11.722-6.7,11.287,6.471Zm4.254-8.2L51.7,19.85l-3.521,2.021,1.24,0.7,1.424-.817c0.931,0.526.877,0.79-.195,1.406a2.415,2.415,0,0,1-2.9.126l-0.848-.48c-1.419-.8-1.663-1.014-0.178-1.867a2.251,2.251,0,0,1,2-.384l2.1-1.2a3.859,3.859,0,0,0-2.715-.443,9.817,9.817,0,0,0-2.853,1.2,5.826,5.826,0,0,0-2.248,1.8q-0.419.882,1.129,1.758l1.734,0.983a4.691,4.691,0,0,0,3.029.655A9.845,9.845,0,0,0,52.11,24q2.106-1.21,2.268-1.874T52.866,20.513ZM36.3,35.773L24.915,29.318,36.666,22.6l11.272,6.5Zm-2-9.306-2.063,1.184,6.707,3.8,2.063-1.184ZM24.652,42.787L13.036,36.109l11.348-6.487,11.679,6.719Zm-2.22-9.5,2.524,1.429-2.7,1.55-2.525-1.429-2.061,1.184,6.706,3.8,2.063-1.184-2.628-1.489,2.7-1.55,2.628,1.49L31.2,35.9,24.5,32.1Zm1.782,22.865L13.031,49.71,13,36.788l11.215,6.437V56.149Zm12.3,7.077L24.9,56.545V43.62l11.609,6.662V63.226ZM33.284,51.741l-6.218-3.586,0,1.78,2.079,1.2,0.011,5.905,2.061,1.19-0.013-5.906,2.079,1.2ZM48.252,29.579v12.9l-0.421.242L36.6,36.3Zm-11.69,7.229,0.157-.083,11.568,6.7L36.924,49.841l-11.6-6.667Zm12.21,33.476L37.2,63.622V50.676l11.573,6.643V70.284Zm-3.21-5.465-3.588-2.068,0-1.508,3.3,1.9,0-1.418-3.3-1.9,0-1.4,3.514,2.026,0-1.679L39.9,55.557l0.016,7.686L45.566,66.5ZM60.513,22.5V35.463L48.938,42.084v-12.9ZM48.833,43.743l11.683,6.77-11.3,6.393-11.622-6.68ZM61.166,77.42L49.46,70.68V57.713l11.632,6.676ZM58.338,71l-2.124-1.225,0,0.225c0,0.416-.106.629-0.319,0.636a2.524,2.524,0,0,1-.947-0.405,2.59,2.59,0,0,1-1.114-1.03,3.555,3.555,0,0,1-.178-1.339l0-1.2a1.474,1.474,0,0,1,.2-1.028,1.265,1.265,0,0,1,1.082.308,3.951,3.951,0,0,1,.9.661,1.209,1.209,0,0,1,.372.818v0.295l2.123,1.226v-0.3a3.939,3.939,0,0,0-.819-2.475A7.974,7.974,0,0,0,55.164,64.3,5.752,5.752,0,0,0,52.5,63.269q-0.969.075-.965,1.845L51.537,67.1a5.091,5.091,0,0,0,.477,2.288A4.814,4.814,0,0,0,53.3,70.929a15.867,15.867,0,0,0,1.876,1.213q1.833,1.059,2.5.875t0.661-1.791V71Zm2.727-20.169,0.36,0.209L61.42,63.923,49.885,57.291ZM73.294,70.461L61.971,63.977,62.018,50.6l11.274,6.473Zm0-14.172L62.021,49.818l0.047-13.262L73.292,43V56.289ZM61.2,22.109l11.607-6.7V28.427L61.2,35.069V22.109Zm12.091,20.1L62.07,35.769l0-.5L73.29,28.83Zm0,29.04V84.4l-11.6-6.678V64.733l0.277,0.016Zm-9.541,5.735,2.061,1.188-0.007-3.008,2.688,1.55L68.5,79.723l2.061,1.188-0.016-7.686-2.061-1.188,0.007,2.9L65.8,73.388l-0.005-2.9L63.737,69.3Z"/>
  <rect id="01" data-name="01" class="cls-2" width="98" height="87"/>
</svg>
