<?xml version="1.0" encoding="utf-8"?>
<!-- Generator: Adobe Illustrator 18.1.1, SVG Export Plug-In . SVG Version: 6.00 Build 0)  -->
<svg version="1.1" id="Layer_1" xmlns="http://www.w3.org/2000/svg" xmlns:xlink="http://www.w3.org/1999/xlink" x="0px" y="0px"
	 viewBox="-183 196.51 32 8.49" enable-background="new -183 196.51 32 8.49" xml:space="preserve">
<path fill="#FFFFFF" d="M-173.78,201.97c0.21,0,0.4-0.03,0.55-0.1c0.15-0.07,0.27-0.16,0.35-0.28c0.08-0.12,0.12-0.27,0.12-0.44
	c0-0.11-0.02-0.2-0.06-0.28c-0.04-0.08-0.09-0.15-0.15-0.2c-0.06-0.06-0.13-0.1-0.21-0.13c-0.08-0.04-0.16-0.07-0.24-0.09
	c-0.08-0.02-0.16-0.04-0.24-0.05c-0.08-0.01-0.15-0.03-0.21-0.04c-0.06-0.01-0.11-0.03-0.15-0.04c-0.04-0.02-0.06-0.04-0.06-0.07
	c0-0.02,0-0.04,0.01-0.05c0.01-0.01,0.03-0.03,0.05-0.04c0.03-0.01,0.06-0.01,0.11-0.01c0.07,0,0.15,0.01,0.23,0.02
	c0.08,0.02,0.16,0.04,0.24,0.08c0.08,0.04,0.15,0.08,0.22,0.13l0.38-0.51c-0.13-0.11-0.29-0.19-0.46-0.25
	c-0.17-0.05-0.35-0.08-0.54-0.08c-0.16,0-0.3,0.02-0.43,0.07c-0.12,0.04-0.23,0.1-0.31,0.18c-0.08,0.07-0.15,0.16-0.19,0.25
	c-0.04,0.09-0.06,0.19-0.06,0.29c0,0.12,0.02,0.21,0.06,0.3c0.04,0.08,0.09,0.15,0.15,0.21c0.06,0.06,0.13,0.1,0.21,0.14
	c0.08,0.04,0.16,0.06,0.24,0.09c0.08,0.02,0.16,0.04,0.24,0.05c0.08,0.01,0.15,0.02,0.21,0.04c0.06,0.01,0.11,0.03,0.15,0.04
	c0.04,0.02,0.06,0.04,0.06,0.07c0,0.03-0.01,0.05-0.04,0.08c-0.02,0.02-0.06,0.03-0.1,0.04c-0.04,0.01-0.08,0.01-0.13,0.01
	c-0.11,0-0.21-0.02-0.3-0.04c-0.09-0.03-0.18-0.06-0.26-0.11c-0.08-0.05-0.15-0.1-0.2-0.16l-0.37,0.53c0.08,0.07,0.18,0.14,0.28,0.2
	c0.11,0.05,0.23,0.1,0.36,0.13C-174.1,201.96-173.95,201.97-173.78,201.97L-173.78,201.97z M-171.36,201.97
	c0.2,0,0.37-0.02,0.52-0.07c0.15-0.05,0.27-0.12,0.36-0.21c0.1-0.09,0.17-0.2,0.21-0.32c0.05-0.12,0.07-0.26,0.07-0.41v-1.39h-0.73
	v1.37c0,0.08-0.02,0.15-0.05,0.21c-0.03,0.06-0.08,0.11-0.15,0.15c-0.06,0.04-0.15,0.05-0.24,0.05c-0.1,0-0.18-0.02-0.24-0.05
	c-0.07-0.04-0.12-0.09-0.15-0.15c-0.03-0.06-0.05-0.13-0.05-0.21v-1.37h-0.73v1.39c0,0.15,0.02,0.28,0.07,0.4
	c0.05,0.12,0.12,0.23,0.21,0.32c0.1,0.09,0.22,0.16,0.37,0.21C-171.73,201.95-171.56,201.97-171.36,201.97L-171.36,201.97z
	 M-167.01,201.93v-2.36H-168l-0.42,1.13l-0.41-1.13h-0.99v2.36h0.71v-1.42l0.53,1.42h0.32l0.53-1.42v1.42H-167.01L-167.01,201.93z
	 M-164.24,201.93l-0.87-2.36h-0.9l-0.87,2.36h0.81l0.08-0.28h0.85l0.08,0.28H-164.24L-164.24,201.93z M-165.33,201.03h-0.47
	l0.23-0.76L-165.33,201.03L-165.33,201.03z M-163.1,201.93v-1.74h0.63v-0.62h-1.98v0.62h0.63v1.74H-163.1L-163.1,201.93z
	 M-161.13,201.97c0.15,0,0.28-0.02,0.41-0.06s0.25-0.09,0.36-0.16c0.11-0.07,0.2-0.16,0.28-0.26c0.08-0.1,0.14-0.21,0.18-0.34
	s0.06-0.26,0.06-0.41c0-0.14-0.02-0.28-0.06-0.41c-0.04-0.13-0.1-0.24-0.18-0.34c-0.08-0.1-0.17-0.19-0.28-0.26
	c-0.11-0.07-0.22-0.13-0.35-0.16c-0.13-0.04-0.27-0.06-0.41-0.06s-0.29,0.02-0.41,0.06c-0.13,0.04-0.25,0.09-0.35,0.16
	c-0.11,0.07-0.2,0.16-0.28,0.26c-0.08,0.1-0.14,0.21-0.18,0.34c-0.04,0.13-0.06,0.26-0.06,0.41c0,0.15,0.02,0.28,0.06,0.41
	c0.04,0.13,0.1,0.24,0.18,0.34c0.08,0.1,0.17,0.19,0.28,0.26c0.11,0.07,0.23,0.13,0.35,0.16
	C-161.41,201.95-161.27,201.97-161.13,201.97L-161.13,201.97z M-161.13,201.34c-0.09,0-0.17-0.01-0.24-0.04
	c-0.07-0.03-0.13-0.07-0.18-0.13c-0.05-0.06-0.09-0.12-0.12-0.19c-0.03-0.07-0.04-0.15-0.04-0.23s0.01-0.16,0.04-0.23
	c0.03-0.07,0.06-0.13,0.12-0.19c0.05-0.06,0.11-0.1,0.18-0.13c0.07-0.03,0.15-0.04,0.24-0.04c0.09,0,0.16,0.01,0.23,0.04
	c0.07,0.03,0.13,0.07,0.18,0.13c0.05,0.05,0.09,0.12,0.11,0.19c0.03,0.07,0.04,0.15,0.04,0.23c0,0.08-0.01,0.16-0.04,0.23
	c-0.03,0.07-0.07,0.14-0.11,0.19c-0.05,0.05-0.11,0.1-0.18,0.13C-160.96,201.33-161.04,201.34-161.13,201.34L-161.13,201.34z
	 M-158.66,201.97c0.21,0,0.4-0.03,0.54-0.1c0.15-0.07,0.27-0.16,0.35-0.28c0.08-0.12,0.12-0.27,0.12-0.44c0-0.11-0.02-0.2-0.06-0.28
	c-0.04-0.08-0.08-0.15-0.15-0.2c-0.06-0.06-0.13-0.1-0.21-0.13c-0.08-0.04-0.16-0.07-0.24-0.09c-0.08-0.02-0.16-0.04-0.24-0.05
	c-0.08-0.01-0.15-0.03-0.21-0.04c-0.06-0.01-0.11-0.03-0.15-0.04c-0.04-0.02-0.05-0.04-0.06-0.07c0-0.02,0.01-0.04,0.02-0.05
	c0.01-0.01,0.03-0.03,0.05-0.04c0.03-0.01,0.06-0.01,0.11-0.01c0.08,0,0.15,0.01,0.24,0.02c0.08,0.02,0.16,0.04,0.24,0.08
	c0.08,0.04,0.15,0.08,0.22,0.13l0.38-0.51c-0.14-0.11-0.29-0.19-0.46-0.25c-0.17-0.05-0.35-0.08-0.55-0.08
	c-0.16,0-0.3,0.02-0.43,0.07c-0.12,0.04-0.22,0.1-0.31,0.18c-0.08,0.07-0.15,0.16-0.19,0.25c-0.04,0.09-0.06,0.19-0.06,0.29
	c0,0.12,0.02,0.21,0.06,0.3c0.04,0.08,0.09,0.15,0.15,0.21c0.06,0.06,0.13,0.1,0.21,0.14c0.08,0.04,0.16,0.06,0.24,0.09
	c0.08,0.02,0.16,0.04,0.24,0.05c0.08,0.01,0.15,0.02,0.21,0.04c0.06,0.01,0.11,0.03,0.15,0.04c0.04,0.02,0.05,0.04,0.06,0.07
	c0,0.03-0.01,0.05-0.04,0.08c-0.02,0.02-0.06,0.03-0.1,0.04c-0.04,0.01-0.08,0.01-0.13,0.01c-0.11,0-0.21-0.02-0.3-0.04
	c-0.09-0.03-0.18-0.06-0.26-0.11c-0.08-0.05-0.15-0.1-0.21-0.16l-0.37,0.53c0.08,0.07,0.18,0.14,0.28,0.2
	c0.11,0.05,0.23,0.1,0.36,0.13C-158.98,201.96-158.83,201.97-158.66,201.97L-158.66,201.97z M-156.24,201.97
	c0.15,0,0.28-0.02,0.41-0.06s0.25-0.09,0.35-0.16c0.11-0.07,0.2-0.16,0.28-0.26c0.08-0.1,0.14-0.21,0.18-0.34
	c0.04-0.13,0.06-0.26,0.06-0.41c0-0.14-0.02-0.28-0.06-0.41c-0.04-0.13-0.1-0.24-0.18-0.34c-0.08-0.1-0.17-0.19-0.28-0.26
	c-0.11-0.07-0.23-0.13-0.35-0.16s-0.27-0.06-0.41-0.06c-0.15,0-0.29,0.02-0.41,0.06c-0.13,0.04-0.25,0.09-0.35,0.16
	c-0.11,0.07-0.2,0.16-0.28,0.26c-0.08,0.1-0.14,0.21-0.18,0.34s-0.06,0.26-0.06,0.41c0,0.15,0.02,0.28,0.06,0.41
	c0.04,0.13,0.1,0.24,0.18,0.34c0.08,0.1,0.17,0.19,0.28,0.26c0.11,0.07,0.23,0.13,0.35,0.16S-156.39,201.97-156.24,201.97
	L-156.24,201.97z M-156.24,201.34c-0.09,0-0.16-0.01-0.24-0.04c-0.07-0.03-0.13-0.07-0.18-0.13c-0.05-0.06-0.09-0.12-0.11-0.19
	c-0.03-0.07-0.04-0.15-0.04-0.23s0.01-0.16,0.04-0.23c0.03-0.07,0.06-0.13,0.11-0.19c0.05-0.06,0.11-0.1,0.18-0.13
	c0.07-0.03,0.15-0.04,0.24-0.04c0.08,0,0.16,0.01,0.23,0.04c0.07,0.03,0.13,0.07,0.18,0.13c0.05,0.05,0.09,0.12,0.12,0.19
	c0.03,0.07,0.04,0.15,0.04,0.23c0,0.08-0.01,0.16-0.04,0.23c-0.03,0.07-0.07,0.14-0.12,0.19c-0.05,0.05-0.11,0.1-0.18,0.13
	C-156.08,201.33-156.16,201.34-156.24,201.34L-156.24,201.34z M-154.02,201.93v-0.88h0.8v-0.62h-0.8v-0.24h0.82v-0.62h-1.54v2.36
	H-154.02L-154.02,201.93z M-151.63,201.93v-1.74h0.63v-0.62h-1.98v0.62h0.64v1.74H-151.63L-151.63,201.93z"/>
<polygon fill="#1B5284" points="-179.12,199.96 -177.1,200.06 -177.31,202.7 -178.68,202.23 -177.95,201.08 -179.6,200.91 "/>
<linearGradient id="SVGID_1_" gradientUnits="userSpaceOnUse" x1="1504.7834" y1="2738.4436" x2="1504.7834" y2="2740.9316" gradientTransform="matrix(0.2498 0 0 0.2498 -555.7979 -483.2685)">
	<stop  offset="0" style="stop-color:#225486"/>
	<stop  offset="1" style="stop-color:#5289B7"/>
</linearGradient>
<polygon fill="url(#SVGID_1_)" points="-177.95,201.08 -180.4,200.74 -181.85,200.94 -181.85,200.94 -179.51,201.35 "/>
<linearGradient id="SVGID_2_" gradientUnits="userSpaceOnUse" x1="1508.0421" y1="2730.3918" x2="1508.0421" y2="2726.3518" gradientTransform="matrix(0.2498 0 0 0.2498 -555.7979 -483.2685)">
	<stop  offset="0" style="stop-color:#225486"/>
	<stop  offset="1" style="stop-color:#5289B7"/>
</linearGradient>
<polygon fill="url(#SVGID_2_)" points="-176.12,198.49 -179.51,198.73 -182.06,198.3 -179.51,197.74 "/>
<linearGradient id="SVGID_3_" gradientUnits="userSpaceOnUse" x1="1504.8735" y1="2742.5959" x2="1504.8735" y2="2750.5461" gradientTransform="matrix(0.2498 0 0 0.2498 -555.7979 -483.2685)">
	<stop  offset="0" style="stop-color:#225486"/>
	<stop  offset="1" style="stop-color:#5289B7"/>
</linearGradient>
<polygon fill="url(#SVGID_3_)" points="-177.31,202.7 -178.77,202.21 -179.5,202.57 -179.51,202.58 -179.53,202.57 -180.03,201.78 
	-182.45,202.34 -182.45,202.34 -179.51,203.76 "/>
<polygon fill="#1B5284" points="-180.4,200.74 -179.51,198.73 -182.06,198.3 -181.85,200.94 "/>
<linearGradient id="SVGID_4_" gradientUnits="userSpaceOnUse" x1="1492.5392" y1="2738.2786" x2="1506.5063" y2="2738.2786" gradientTransform="matrix(0.2498 0 0 0.2498 -555.7979 -483.2685)">
	<stop  offset="0" style="stop-color:#D5E2E9"/>
	<stop  offset="1" style="stop-color:#93B6C7"/>
</linearGradient>
<path fill="url(#SVGID_4_)" d="M-179.53,203.8l0.02,1.2l-2.85-1.89l-0.09-0.77L-179.53,203.8L-179.53,203.8z M-183,197.71l0.46,3.85
	l3.02,1l-0.02-1.14l-2.31-0.49l-0.21-2.64l2.52-0.61l0.02-1.18L-183,197.71L-183,197.71z M-179.54,198.94l-0.01,1.21l-1.57-0.06
	l-0.04-0.99L-179.54,198.94z"/>
<linearGradient id="SVGID_5_" gradientUnits="userSpaceOnUse" x1="1506.5001" y1="2738.2786" x2="1520.4673" y2="2738.2786" gradientTransform="matrix(0.2498 0 0 0.2498 -555.7979 -483.2685)">
	<stop  offset="0" style="stop-color:#C3D8E2"/>
	<stop  offset="1" style="stop-color:#FFFFFF"/>
</linearGradient>
<path fill="url(#SVGID_5_)" d="M-176.66,203.11l-2.85,1.89l0.02-1.2l2.19-1.1l0.21-2.65l-2.37,0.09l-0.02-1.21l3.28,0.32
	L-176.66,203.11L-176.66,203.11z M-176.12,198.49l0.09-0.77l-3.49-1.21l0.02,1.18L-176.12,198.49L-176.12,198.49z M-178,202.07
	l0.04-0.99l-1.53,0.35l-0.02,1.14L-178,202.07z"/>
</svg>
