<svg id="founded.svg" xmlns="http://www.w3.org/2000/svg" viewBox="0 0 98 87"><defs><style>.cls-1{fill:#fff;}.cls-1,.cls-2{fill-opacity:0;}.cls-2,.cls-4{fill:#2678bd;}.cls-3,.cls-5,.cls-6{fill:none;}.cls-5,.cls-6{stroke:#2678bd;stroke-miterlimit:10;}.cls-5{stroke-width:3px;}</style></defs><title>top web developers</title><rect class="cls-1" y="-0.05" width="98" height="87"/><rect class="cls-2" y="-0.05" width="98" height="87"/><line class="cls-3" x1="36.91" y1="40.16" x2="36.85" y2="40.21"/><path class="cls-4" d="M46.86,16.29v.5H45.59v3.64H45V16.79H43.77v-.5Z"/><path class="cls-4" d="M50.06,20a1.57,1.57,0,0,1-1.24.47,1.59,1.59,0,0,1-1.23-.45,2.39,2.39,0,0,1-.44-1.65,2.53,2.53,0,0,1,.47-1.73,1.92,1.92,0,0,1,2.49,0,2.48,2.48,0,0,1,.43,1.66A2.45,2.45,0,0,1,50.06,20ZM49.64,17a1,1,0,0,0-.78-.27,1.05,1.05,0,0,0-.81.29,2.2,2.2,0,0,0-.3,1.42A2.12,2.12,0,0,0,48,19.77a1,1,0,0,0,.78.26,1,1,0,0,0,.81-.29c.23-.25.31-.64.31-1.4A2,2,0,0,0,49.64,17Z"/><path class="cls-4" d="M52.79,16.29a1.41,1.41,0,0,1,.87.23,1.17,1.17,0,0,1,.41,1.05,1.24,1.24,0,0,1-.41,1.08,1.54,1.54,0,0,1-.88.23H52v1.55H51.4V16.29ZM52,18.39h.84a.67.67,0,0,0,.53-.16.91.91,0,0,0,.17-.65c0-.39-.07-.55-.19-.66a.7.7,0,0,0-.54-.14H52Z"/><path class="cls-4" d="M26.91,27.63l-1-4h.55l.48,2c.12.51.22,1,.3,1.4h0a13.64,13.64,0,0,1,.33-1.4l.54-2h.54l.5,2.05c.11.48.22,1,.28,1.38h0c.08-.44.2-.89.32-1.39l.54-2h.53l-1.14,4h-.55l-.51-2.11a10.17,10.17,0,0,1-.26-1.32h0A11.58,11.58,0,0,1,28,25.52l-.57,2.11Z"/><path class="cls-4" d="M33.42,25.73H31.85v1.46H33.6v.44H31.33v-4h2.18V24H31.85V25.3h1.57Z"/><path class="cls-4" d="M34.28,23.64a5,5,0,0,1,.95-.08,1.7,1.7,0,0,1,1.11.29.86.86,0,0,1,.34.71,1,1,0,0,1-.69.89h0a1.05,1.05,0,0,1,.84,1,1.12,1.12,0,0,1-.34.81,2.1,2.1,0,0,1-1.4.37,7.25,7.25,0,0,1-.81,0Zm.52,1.66h.47c.56,0,.88-.29.88-.68s-.36-.66-.89-.66a3.25,3.25,0,0,0-.46,0Zm0,1.93a2.44,2.44,0,0,0,.44,0c.54,0,1-.2,1-.79s-.48-.78-1.05-.78H34.8Z"/><path class="cls-4" d="M40.25,23.49a1.65,1.65,0,0,1,1.21.38,2.16,2.16,0,0,1,.46,1.67,2.26,2.26,0,0,1-.48,1.69,1.6,1.6,0,0,1-1.17.4H38.85V23.49Zm-.84,3.65h.83a1,1,0,0,0,.8-.28c.22-.23.29-.6.29-1.29A2,2,0,0,0,41,24.24a1.07,1.07,0,0,0-.8-.26h-.83Z"/><path class="cls-4" d="M45,23.49V24h-1.7v1.29h1.56v.49H43.33v1.38h1.72v.49H42.77V23.49Z"/><path class="cls-4" d="M46.09,23.49,47.2,27l1.14-3.53h.58l-1.41,4.14h-.64l-1.39-4.14Z"/><path class="cls-4" d="M51.77,23.49V24h-1.7v1.29h1.55v.49H50.07v1.38h1.72v.49H49.51V23.49Z"/><path class="cls-4" d="M53.19,23.49v3.64h1.73v.5H52.63V23.49Z"/><path class="cls-4" d="M58.17,27.24a1.57,1.57,0,0,1-1.24.47,1.61,1.61,0,0,1-1.23-.45,2.39,2.39,0,0,1-.44-1.65,2.53,2.53,0,0,1,.47-1.73,1.92,1.92,0,0,1,2.49,0,2.48,2.48,0,0,1,.43,1.66A2.4,2.4,0,0,1,58.17,27.24Zm-.42-3.08a1,1,0,0,0-.77-.27,1,1,0,0,0-.81.29,2.12,2.12,0,0,0-.31,1.42A2.12,2.12,0,0,0,56.15,27a1.29,1.29,0,0,0,1.59,0c.23-.25.31-.64.31-1.4A2,2,0,0,0,57.75,24.16Z"/><path class="cls-4" d="M60.9,23.49a1.45,1.45,0,0,1,.88.23,1.19,1.19,0,0,1,.4,1.05,1.24,1.24,0,0,1-.41,1.08,1.54,1.54,0,0,1-.88.23h-.82v1.55h-.56V23.49Zm-.83,2.1h.84a.66.66,0,0,0,.52-.16.91.91,0,0,0,.17-.65c0-.39-.06-.55-.18-.66a.74.74,0,0,0-.55-.14h-.8Z"/><path class="cls-4" d="M65.19,23.49V24h-1.7v1.29H65v.49H63.49v1.38h1.72v.49H62.93V23.49Z"/><path class="cls-4" d="M67.46,23.49a1.79,1.79,0,0,1,.88.2,1,1,0,0,1,.4.88,1,1,0,0,1-.86,1.13c.54.14.69.76.91,1.93H68.2c-.26-1.25-.38-1.69-.92-1.69h-.67v1.69h-.56V23.49Zm-.85,2h.54c.62,0,1-.16,1-.82a.73.73,0,0,0-.16-.53.75.75,0,0,0-.54-.13h-.84Z"/><path class="cls-4" d="M71.55,24.17a1.63,1.63,0,0,0-.92-.27c-.41,0-.71.14-.71.62,0,.91,2,.56,2,2a1.07,1.07,0,0,1-.46.92,1.8,1.8,0,0,1-1,.25,1.83,1.83,0,0,1-1.22-.4l.29-.41a1.58,1.58,0,0,0,1,.33c.41,0,.76-.12.76-.66,0-1-2-.61-2-2a1,1,0,0,1,.39-.81,1.6,1.6,0,0,1,1-.3,1.84,1.84,0,0,1,1.1.34Z"/><path class="cls-4" d="M44.08,67.69H40.65v-.48c0-1.06.41-1.47,1.65-2.3.59-.39,1-.71,1-1.37s-.44-.82-1-.82a1.56,1.56,0,0,0-1.21.46l-.44-.45a2.21,2.21,0,0,1,1.69-.64c.89,0,1.7.33,1.7,1.46,0,.83-.44,1.22-1.25,1.78-1,.71-1.41,1-1.41,1.71l2.66,0Z"/><path class="cls-4" d="M48,67.25a1.53,1.53,0,0,1-1.27.54,1.51,1.51,0,0,1-1.25-.52A3.69,3.69,0,0,1,45,65a3.88,3.88,0,0,1,.55-2.4,1.55,1.55,0,0,1,1.28-.55,1.53,1.53,0,0,1,1.25.52,3.62,3.62,0,0,1,.51,2.26A3.86,3.86,0,0,1,48,67.25ZM46.81,62.7c-.81,0-1.06.75-1.06,2.31s.21,2.14,1,2.14,1.06-.74,1.06-2.31S47.61,62.7,46.81,62.7Z"/><path class="cls-4" d="M49.7,67h1.39V62.91l-1.28.88-.39-.54L51,62.17h.8V67H53v.66H49.7Z"/><path class="cls-4" d="M54.34,66.76a1.66,1.66,0,0,0,1.15.38c1,0,1.13-.61,1.16-2.27a1.33,1.33,0,0,1-1.25.66,1.59,1.59,0,0,1-1.09-.38,1.69,1.69,0,0,1-.45-1.29,1.77,1.77,0,0,1,.48-1.35,1.86,1.86,0,0,1,1.28-.43,1.5,1.5,0,0,1,1.39.67,3.8,3.8,0,0,1,.37,2,3.86,3.86,0,0,1-.49,2.4,1.75,1.75,0,0,1-1.47.6,2.09,2.09,0,0,1-1.47-.5Zm2.26-3c0-.68-.31-1.07-1-1.07s-1,.41-1,1.14S54.86,65,55.5,65,56.6,64.54,56.6,63.77Z"/><polygon class="cls-5" points="49 5.76 13.85 24.68 13.85 33.82 13.85 42.97 13.85 53.07 13.85 62.22 49 81.13 84.15 62.22 84.15 53.07 84.15 42.97 84.15 33.82 84.15 24.68 49 5.76"/><polygon class="cls-6" points="49 1.66 10.02 22.63 10.02 32.77 10.02 42.92 10.02 54.12 10.02 64.26 49 85.23 87.98 64.26 87.98 54.12 87.98 42.92 87.98 32.77 87.98 22.63 49 1.66"/><path class="cls-4" d="M13.85,33.82V53.07h70.3V33.82ZM38.6,46.89a5.35,5.35,0,0,1-3.66,1.38,4.7,4.7,0,1,1,0-9.39,5.37,5.37,0,0,1,3.65,1.36l.26.24-1.16,1-.26-.23a3.73,3.73,0,0,0-2.49-.93,3.22,3.22,0,1,0,0,6.44,3.63,3.63,0,0,0,2.49-.94l.28-.24,1.15,1Zm3,1.39H39.86V38.61H41.6Zm7.8,0H47.67v-.53a3.18,3.18,0,0,1-1.82.52,3.12,3.12,0,0,1-2.06-.69,2.84,2.84,0,0,1-.89-2.18V41.7h1.73v3.71a1.22,1.22,0,0,0,1.23,1.38,1.62,1.62,0,0,0,1.81-1.59V41.7H49.4Zm4.77-5h-1.3v5H51.14v-5h-1.3V41.7h1.3V39.38h1.73V41.7h1.3Zm6.64,4.13a4,4,0,0,1-2.6.88,3.49,3.49,0,0,1-3.74-3.36c0-1.92,1.57-3.31,3.74-3.31a4.15,4.15,0,0,1,2.58.86l.29.24-1.17,1-.26-.2a2.36,2.36,0,0,0-1.44-.46,1.89,1.89,0,0,0-2.09,1.84,1.93,1.93,0,0,0,2.09,1.88,2.24,2.24,0,0,0,1.43-.48l.26-.21,1.19,1Zm-1.4-2.45a1.26,1.26,0,1,1-1.25-1.12A1.2,1.2,0,0,1,59.41,44.93Zm8.64,3.35H66.32V44.45c0-.52,0-1.39-1-1.39a1.47,1.47,0,0,0-1.6,1.6v3.62H62V38.61h1.73V42.1a2.77,2.77,0,0,1,1.66-.51,2.65,2.65,0,0,1,1.9.69,2.75,2.75,0,0,1,.78,2.18Z"/><rect class="cls-4" x="17.19" y="30.73" width="63.61" height="0.56"/><rect class="cls-4" x="17.19" y="55.61" width="63.61" height="0.56"/></svg>