<svg id="founded.svg" xmlns="http://www.w3.org/2000/svg" viewBox="0 0 98 87"><defs><style>.cls-1{fill:#fff;fill-opacity:0;}.cls-2{font-size:4.48px;font-family:OpenSans-SemiBold, Open Sans;font-weight:600;}.cls-2,.cls-3{fill:#2678bd;}</style></defs><title>TDA</title><rect class="cls-1" width="98" height="87"/><text class="cls-2" transform="translate(16.34 64.55) rotate(30.79)">RECOGNIZED BY</text><path class="cls-3" d="M49,20.38A23.12,23.12,0,1,1,25.88,43.5,23.14,23.14,0,0,1,49,20.38M49,18A25.5,25.5,0,1,0,74.5,43.5,25.5,25.5,0,0,0,49,18Z"/><path class="cls-3" d="M50,39.87a3.45,3.45,0,0,0-1.57-.5h-2v8.25h2A3.3,3.3,0,0,0,50,47.09c1-.65,1.54-1.87,1.54-3.59S51.05,40.52,50,39.87Z"/><path class="cls-3" d="M49,22.17A21.33,21.33,0,1,0,70.33,43.5,21.33,21.33,0,0,0,49,22.17Zm-7,17.2H39.34v9.3a1,1,0,0,1-1,1,1,1,0,0,1-1-1v-9.3H34.6a1,1,0,0,1,0-2.07H42a1,1,0,1,1,0,2.07Zm6.4,10.33h-3a1,1,0,0,1-1-1V38.32a1,1,0,0,1,1-1h3c.13,0,5.26,0,5.26,6.2S48.52,49.7,48.39,49.7Zm15.14,0a1,1,0,0,1-1-.66l-.78-1.93-.83-2-1.55-4-1.58,4-.83,2L56.22,49a1,1,0,0,1-1,.66,1,1,0,0,1-1-1,.85.85,0,0,1,.08-.39L58.43,38a1.05,1.05,0,0,1,1-.66,1,1,0,0,1,1,.66l4.13,10.32a1,1,0,0,1,.07.39A1,1,0,0,1,63.53,49.7Z"/><path class="cls-3" d="M49,3a4.85,4.85,0,0,1,2.43.66L82.27,21.48a5.05,5.05,0,0,1,2.49,4.38V61.14a5.05,5.05,0,0,1-2.49,4.38L51.43,83.39a4.8,4.8,0,0,1-4.86,0L15.73,65.52a5.05,5.05,0,0,1-2.49-4.38V25.86a5.05,5.05,0,0,1,2.49-4.38L46.57,3.61A4.85,4.85,0,0,1,49,3M49,1.5a6.27,6.27,0,0,0-3.16.85L15,20.22a6.51,6.51,0,0,0-3.23,5.64V61.14A6.51,6.51,0,0,0,15,66.78L45.84,84.65a6.3,6.3,0,0,0,6.32,0L83,66.78a6.51,6.51,0,0,0,3.23-5.64V25.86A6.51,6.51,0,0,0,83,20.22L52.16,2.35A6.27,6.27,0,0,0,49,1.5Z"/></svg>