<svg version="1.1" xmlns="http://www.w3.org/2000/svg" width="576" height="448" viewBox="0 0 576 448">
<path fill="#ffffff" d="M532.363 397.091v-244.363c-6.682 7.636-14 14.637-21.955 21-45.5 35-91.318 70.637-135.545 107.545-23.863 20.046-53.454 44.545-86.545 44.545h-0.637c-33.091 0-62.682-24.5-86.545-44.545-44.227-36.909-90.045-72.545-135.545-107.545-7.955-6.364-15.273-13.363-21.955-21v244.363c0 5.409 4.773 10.182 10.182 10.182h468.363c5.409 0 10.182-4.773 10.182-10.182zM532.363 62.681c0-7.955 1.909-21.955-10.182-21.955h-468.363c-5.409 0-10.182 4.773-10.182 10.182 0 36.273 18.136 67.772 46.773 90.364 42.636 33.409 85.272 67.136 127.591 100.864 16.864 13.682 47.409 42.955 69.681 42.955h0.637c22.273 0 52.818-29.273 69.681-42.955 42.318-33.727 84.954-67.455 127.591-100.864 20.681-16.227 46.773-51.545 46.773-78.591zM573.091 50.909v346.182c0 28-22.909 50.909-50.909 50.909h-468.363c-28 0-50.909-22.909-50.909-50.909v-346.181c0-28 22.909-50.909 50.909-50.909h468.363c28 0 50.909 22.909 50.909 50.909z"></path>
</svg>
