<svg width="50" height="50" viewBox="0 0 50 50" fill="none" xmlns="http://www.w3.org/2000/svg">
<path d="M49.9082 11.8482C49.7361 11.2082 49.3162 10.6627 48.7418 10.3319C48.1669 9.99952 47.4835 9.90961 46.8423 10.0817C46.2019 10.2542 45.6564 10.6736 45.3256 11.2481L44.909 11.9731C44.5132 11.7456 44.0075 11.8795 43.776 12.2733L41.6597 15.8807L40.9347 15.4641C40.7427 15.353 40.514 15.3229 40.3 15.3807C40.0856 15.4389 39.9034 15.5796 39.7931 15.7725C39.5673 16.1707 39.7048 16.6768 40.1015 16.9055L40.8265 17.3221L33.7443 29.595L31.9946 34.2695L31.1614 35.8272C30.6736 36.6759 30.7257 37.7308 31.2948 38.527L29.4201 40.8264L28.8953 39.5103C28.6585 38.9236 28.1105 38.5217 27.4804 38.4725C26.8498 38.4228 26.2456 38.7344 25.9206 39.2768L25.6207 39.7849L25.3376 36.4521C25.2725 35.6637 24.6618 35.0298 23.8766 34.9346C23.0911 34.8399 22.3474 35.3106 22.0963 36.0608L20.0467 42.2096C19.9035 42.6445 20.1379 43.1132 20.5715 43.2596C20.6529 43.2975 20.7404 43.3203 20.8299 43.326C21.1879 43.3272 21.5068 43.0989 21.6216 42.7596L23.6626 36.6108L23.9543 39.9932C24.0146 40.7149 24.5333 41.315 25.2387 41.4785C25.9442 41.6421 26.674 41.3313 27.0455 40.71L27.3538 40.2015L27.8705 41.5099C28.0898 42.0611 28.5857 42.4545 29.1728 42.542C29.7598 42.6295 30.3489 42.398 30.72 41.9346L32.6614 39.4769C32.8762 39.5331 33.0975 39.5611 33.3196 39.5603C34.2126 39.5672 35.0417 39.0969 35.4941 38.3268L36.3273 36.9354L39.5018 33.0779L46.6588 20.6548L47.3838 21.0714C47.577 21.1821 47.7178 21.3648 47.7752 21.58C47.8329 21.7936 47.8028 22.0214 47.6922 22.213L44.3594 27.9872C44.2337 28.1768 44.191 28.4095 44.2414 28.6316C44.2919 28.8533 44.4306 29.0449 44.6259 29.1617C44.8179 29.2732 45.0465 29.3033 45.2605 29.2455C45.4749 29.1873 45.6572 29.0466 45.7674 28.8537L49.1002 23.0796C49.4326 22.5047 49.5225 21.8212 49.35 21.1801C49.1775 20.5397 48.7581 19.9942 48.1836 19.6634L47.4586 19.2468L49.5416 15.639C49.769 15.2432 49.6352 14.7379 49.2418 14.506L49.6584 13.781C49.9997 13.1972 50.09 12.4999 49.9082 11.8482ZM46.767 12.0813C46.8773 11.8884 47.0604 11.7473 47.2756 11.6899C47.4896 11.637 47.7158 11.6667 47.9086 11.7733C48.1018 11.8836 48.2426 12.0666 48.3004 12.2814C48.3533 12.4954 48.3236 12.7216 48.217 12.9145L47.8004 13.6394L46.3504 12.8062L46.767 12.0813ZM35.4107 35.3443L34.9941 35.1027L33.761 34.3858L34.9441 31.2199L37.5686 32.7361L35.4107 35.3443ZM32.9112 37.752C32.5592 37.5066 32.451 37.0347 32.6614 36.6604L33.078 35.9359L34.5275 36.769L34.1109 37.4855C33.9941 37.6881 33.798 37.8321 33.5698 37.8829C33.3416 37.9334 33.1028 37.8862 32.9112 37.752ZM38.5185 31.37L35.6357 29.7036L42.3012 18.1553L45.184 19.8217L38.5185 31.37ZM46.0172 18.3803L43.1344 16.7139L44.8008 13.8311L47.6836 15.4974L46.0172 18.3803Z" fill="#0071B3"/>
<path d="M13.1476 37.3353L10.1985 40.2767L8.432 38.5103C8.10694 38.1872 7.58213 38.1872 7.25707 38.5103C7.09922 38.6669 7.01053 38.8797 7.01053 39.1018C7.01053 39.3239 7.09922 39.5371 7.25707 39.6933L9.02353 41.4598C9.33598 41.7698 9.75827 41.9435 10.1985 41.9431C10.6411 41.9455 11.067 41.7718 11.3815 41.4598L14.3225 38.5103C14.6057 38.1795 14.5865 37.6868 14.279 37.3793C13.971 37.0713 13.4783 37.0522 13.1476 37.3353Z" fill="#0071B3"/>
<path d="M3.33269 39.5767C3.33269 43.4883 6.50353 46.6588 10.4148 46.6588C14.3261 46.6588 17.4969 43.4883 17.4969 39.5767C17.4969 39.1165 17.1239 38.7435 16.6638 38.7435C16.2036 38.7435 15.8306 39.1165 15.8306 39.5767C15.8306 42.5677 13.4058 44.9924 10.4148 44.9924C7.42379 44.9924 4.99907 42.5677 4.99907 39.5767C4.99907 36.5856 7.42379 34.1609 10.4148 34.1609C11.5873 34.1577 12.7285 34.538 13.6642 35.2443C14.0324 35.5205 14.5547 35.4457 14.8306 35.0775C15.1068 34.7093 15.0324 34.1874 14.6642 33.9111C12.5181 32.3017 9.64672 32.0429 7.24763 33.2423C4.84814 34.442 3.33269 36.8944 3.33269 39.5767Z" fill="#0071B3"/>
<path d="M29.9949 6.66553C30.455 6.66553 30.828 6.29287 30.828 5.83234C30.828 5.37221 30.455 4.99915 29.9949 4.99915H8.33186C7.87174 4.99915 7.49867 5.37221 7.49867 5.83234V9.1651C7.49867 9.62564 7.87174 9.99829 8.33186 9.99829H29.9949C30.455 9.99829 30.828 9.62564 30.828 9.1651C30.828 8.70498 30.455 8.33191 29.9949 8.33191H9.16506V6.66553H29.9949Z" fill="#0071B3"/>
<path d="M10.8315 11.6647C10.3714 11.6647 9.99829 12.0377 9.99829 12.4979C9.99829 12.9584 10.3714 13.331 10.8315 13.331H27.4953C27.9554 13.331 28.3285 12.9584 28.3285 12.4979C28.3285 12.0377 27.9554 11.6647 27.4953 11.6647H10.8315Z" fill="#0071B3"/>
<path d="M32.4944 17.4969H14.1642C13.7041 17.4969 13.331 17.87 13.331 18.3301C13.331 18.7907 13.7041 19.1633 14.1642 19.1633H32.4944C32.9545 19.1633 33.3276 18.7907 33.3276 18.3301C33.3276 17.87 32.9545 17.4969 32.4944 17.4969Z" fill="#0071B3"/>
<path d="M24.1625 23.3294C24.1625 22.8693 23.7895 22.4962 23.3293 22.4962H6.66551C6.20539 22.4962 5.83232 22.8693 5.83232 23.3294C5.83232 23.7899 6.20539 24.1626 6.66551 24.1626H23.3293C23.7895 24.1626 24.1625 23.7899 24.1625 23.3294Z" fill="#0071B3"/>
<path d="M32.4945 22.4962H26.6621C26.202 22.4962 25.8289 22.8693 25.8289 23.3294C25.8289 23.7899 26.202 24.1626 26.6621 24.1626H32.4945C32.9546 24.1626 33.3277 23.7899 33.3277 23.3294C33.3277 22.8693 32.9546 22.4962 32.4945 22.4962Z" fill="#0071B3"/>
<path d="M14.9974 28.3285C15.4576 28.3285 15.8306 27.9558 15.8306 27.4953C15.8306 27.0352 15.4576 26.6621 14.9974 26.6621H6.66551C6.20539 26.6621 5.83232 27.0352 5.83232 27.4953C5.83232 27.9558 6.20539 28.3285 6.66551 28.3285H14.9974Z" fill="#0071B3"/>
<path d="M18.3302 28.3285H24.1625C24.6226 28.3285 24.9957 27.9558 24.9957 27.4953C24.9957 27.0352 24.6226 26.6621 24.1625 26.6621H18.3302C17.87 26.6621 17.497 27.0352 17.497 27.4953C17.497 27.9558 17.87 28.3285 18.3302 28.3285Z" fill="#0071B3"/>
<path d="M37.4936 38.3268C37.0335 38.3268 36.6604 38.6999 36.6604 39.16V47.4919C36.6604 47.9524 36.2874 48.3251 35.8272 48.3251H2.49957C2.03945 48.3251 1.66638 47.9524 1.66638 47.4919V2.49957C1.66638 2.03945 2.03945 1.66638 2.49957 1.66638H35.8272C36.2874 1.66638 36.6604 2.03945 36.6604 2.49957V18.1471C36.6604 18.6073 37.0335 18.9803 37.4936 18.9803C37.9537 18.9803 38.3268 18.6073 38.3268 18.1471V2.49957C38.3268 1.11919 37.2076 0 35.8272 0H2.49957C1.11919 0 0 1.11919 0 2.49957V47.4919C0 48.8727 1.11919 49.9915 2.49957 49.9915H35.8272C37.2076 49.9915 38.3268 48.8727 38.3268 47.4919V39.16C38.3268 38.6999 37.9537 38.3268 37.4936 38.3268Z" fill="#0071B3"/>
</svg>
