<svg width="50" height="50" viewBox="0 0 50 50" fill="none" xmlns="http://www.w3.org/2000/svg">
<path d="M49.1667 45H46.6667V29.1667C46.6664 28.7065 46.293 28.3337 45.8328 28.334C45.5612 28.3342 45.3067 28.4667 45.1509 28.6892L33.4842 45.3559C33.2205 45.733 33.3124 46.2526 33.6896 46.5163C33.8295 46.6141 33.996 46.6666 34.1667 46.6667H45V49.1667C45 49.6269 45.3732 50 45.8334 50C46.2936 50 46.6667 49.6269 46.6667 49.1667V46.6667H49.1667C49.6269 46.6667 50 46.2936 50 45.8334C50 45.3731 49.6269 45 49.1667 45ZM45 45H35.7667L45 31.81V45Z" fill="white"/>
<path d="M34.1667 48.3334H24.3009L33.4734 37.5325C33.4942 37.5077 33.5137 37.4819 33.5317 37.455C35.2574 34.9011 34.6826 31.4432 32.2234 29.585C29.2333 27.4366 25.0677 28.119 22.9194 31.1091C22.1047 32.2429 21.6665 33.6039 21.6667 35C21.6667 35.4602 22.0399 35.8334 22.5001 35.8334C22.9603 35.8334 23.3334 35.4602 23.3334 35C23.3331 32.2386 25.5715 29.9998 28.3329 29.9995C29.3796 29.9994 30.3999 30.3277 31.2501 30.9384C32.9727 32.2582 33.3738 34.6891 32.1667 36.4925L21.8651 48.6275C21.5673 48.9785 21.6104 49.5043 21.9613 49.8021C22.1119 49.9298 22.3027 49.9999 22.5001 50H34.1667C34.627 50 35.0001 49.6269 35.0001 49.1667C35.0001 48.7065 34.627 48.3334 34.1667 48.3334Z" fill="white"/>
<path d="M22.5183 44.1825C22.5357 43.7226 22.1769 43.3357 21.717 43.3183C21.7169 43.3183 21.7168 43.3183 21.7167 43.3183C10.8448 42.9148 2.11885 34.2045 1.69583 23.3333H5C5.46021 23.3333 5.83333 22.9602 5.83333 22.5C5.83333 22.0398 5.46021 21.6667 5 21.6667H1.69583C2.11281 10.8147 10.8146 2.11323 21.6667 1.69667V4.16667C21.6667 4.62687 22.0398 5 22.5 5C22.9602 5 23.3333 4.62687 23.3333 4.16667V1.69667C34.0369 2.11063 42.6756 10.5862 43.2933 21.28L40.0433 18.03C39.7123 17.7102 39.1848 17.7194 38.865 18.0504C38.5531 18.3733 38.5531 18.8853 38.865 19.2083L43.5167 23.86C43.6043 23.966 43.7172 24.0482 43.845 24.0992C43.8776 24.109 43.9107 24.1171 43.9442 24.1233C44.0014 24.144 44.0605 24.1582 44.1208 24.1658C44.1292 24.1658 44.1367 24.1658 44.145 24.1658C44.1533 24.1658 44.1608 24.1658 44.1683 24.1658C44.2318 24.161 44.2945 24.1488 44.355 24.1292C44.3893 24.125 44.4232 24.1186 44.4567 24.11C44.5695 24.0699 44.6722 24.0056 44.7575 23.9217L49.4725 19.2083C49.7922 18.8773 49.7831 18.3498 49.4521 18.03C49.1292 17.7181 48.6172 17.7181 48.2942 18.03L44.9633 21.3583C44.368 9.41354 34.5187 0.0292708 22.5592 0.0116667C22.5383 0.0108333 22.5208 0 22.5 0C22.4792 0 22.4617 0.0108333 22.4408 0.0116667C10.0606 0.0286458 0.0286458 10.0606 0.0116667 22.4408C0.0116667 22.4617 0 22.4792 0 22.5C0 22.5208 0.0108333 22.5383 0.0116667 22.5592C0.0323958 34.6339 9.58865 44.5352 21.655 44.9842H21.6858C22.1336 44.9841 22.5014 44.63 22.5183 44.1825Z" fill="white"/>
<path d="M33.6958 11.3042C33.3704 10.9789 32.8429 10.9789 32.5175 11.3042L23.5625 20.2583C22.8859 19.9567 22.1131 19.9567 21.4367 20.2583L17.1967 16.0183C16.8656 15.6986 16.338 15.7078 16.0183 16.0389C15.7065 16.3618 15.7065 16.8737 16.0183 17.1967L20.25 21.4283C19.6558 22.6721 20.1825 24.1621 21.4264 24.7561C22.381 25.2122 23.5196 25.0167 24.2675 24.2683C25.0195 23.5227 25.2131 22.381 24.7492 21.4292L33.6958 12.4825C34.0212 12.1571 34.0212 11.6296 33.6958 11.3042ZM23.0894 23.089C23.0893 23.0891 23.0893 23.0891 23.0892 23.0892C22.7596 23.4043 22.2404 23.4043 21.9108 23.0892C21.5853 22.7637 21.5853 22.2361 21.9106 21.9106C22.236 21.5851 22.7636 21.5851 23.0892 21.9104C23.4147 22.2358 23.4147 22.7635 23.0894 23.089Z" fill="white"/>
</svg>
