<?xml version="1.0" encoding="utf-8"?>
<!-- Generator: Adobe Illustrator 16.0.0, SVG Export Plug-In . SVG Version: 6.00 Build 0)  -->
<!DOCTYPE svg PUBLIC "-//W3C//DTD SVG 1.1//EN" "http://www.w3.org/Graphics/SVG/1.1/DTD/svg11.dtd">
<svg version="1.1" id="Layer_1" xmlns="http://www.w3.org/2000/svg" xmlns:xlink="http://www.w3.org/1999/xlink" x="0px" y="0px"
	 width="32px" height="8.494px" viewBox="0 11.764 32 8.494" enable-background="new 0 11.764 32 8.494" xml:space="preserve">
<path d="M9.219,17.231c0.212,0,0.395-0.032,0.547-0.098c0.153-0.065,0.27-0.157,0.35-0.28c0.082-0.121,0.122-0.27,0.122-0.444
	c0-0.11-0.02-0.202-0.057-0.282c-0.038-0.078-0.085-0.145-0.15-0.2c-0.063-0.055-0.132-0.098-0.21-0.132
	C9.743,15.76,9.664,15.73,9.579,15.71c-0.083-0.022-0.163-0.04-0.242-0.055c-0.078-0.015-0.147-0.03-0.21-0.042
	c-0.063-0.012-0.112-0.027-0.15-0.045s-0.055-0.04-0.058-0.067c0-0.02,0.005-0.038,0.015-0.055c0.01-0.015,0.03-0.027,0.055-0.037
	c0.027-0.01,0.062-0.015,0.11-0.015c0.075,0,0.152,0.01,0.234,0.025c0.08,0.018,0.16,0.042,0.24,0.078
	c0.077,0.035,0.152,0.077,0.222,0.13l0.382-0.507c-0.135-0.11-0.287-0.192-0.457-0.247c-0.169-0.055-0.352-0.083-0.544-0.083
	c-0.162,0-0.305,0.022-0.427,0.065c-0.123,0.042-0.225,0.103-0.308,0.175c-0.082,0.075-0.145,0.157-0.185,0.25
	c-0.042,0.092-0.063,0.189-0.063,0.29c0,0.115,0.02,0.215,0.058,0.297c0.037,0.083,0.087,0.152,0.15,0.207
	c0.062,0.055,0.132,0.103,0.209,0.138c0.078,0.035,0.16,0.063,0.242,0.085c0.083,0.02,0.165,0.037,0.243,0.052
	c0.077,0.013,0.147,0.025,0.209,0.038c0.063,0.012,0.112,0.027,0.15,0.042c0.038,0.017,0.055,0.04,0.058,0.067
	c0,0.03-0.013,0.054-0.038,0.075s-0.058,0.032-0.097,0.042c-0.04,0.008-0.083,0.014-0.127,0.014c-0.107,0-0.208-0.016-0.3-0.043
	s-0.18-0.063-0.257-0.11c-0.078-0.045-0.147-0.098-0.205-0.155L8.117,16.85c0.083,0.074,0.178,0.143,0.285,0.197
	c0.107,0.055,0.227,0.1,0.362,0.129C8.899,17.217,9.051,17.231,9.219,17.231L9.219,17.231z M11.639,17.231
	c0.2,0,0.372-0.024,0.517-0.075c0.147-0.05,0.267-0.119,0.362-0.212c0.095-0.091,0.167-0.198,0.212-0.322
	c0.047-0.123,0.07-0.26,0.07-0.407v-1.389h-0.727v1.366c0,0.075-0.018,0.145-0.05,0.207c-0.033,0.06-0.083,0.11-0.147,0.146
	S11.729,16.6,11.634,16.6c-0.098,0-0.18-0.02-0.245-0.055s-0.115-0.085-0.147-0.146c-0.033-0.062-0.05-0.13-0.05-0.207v-1.366
	h-0.727v1.391c0,0.147,0.022,0.282,0.07,0.405c0.047,0.122,0.117,0.229,0.215,0.319c0.097,0.09,0.217,0.162,0.365,0.213
	C11.27,17.207,11.442,17.231,11.639,17.231L11.639,17.231z M15.99,17.189v-2.361h-0.987l-0.415,1.131l-0.415-1.134h-0.987v2.36
	h0.714V15.77l0.527,1.419h0.319l0.527-1.419v1.419H15.99L15.99,17.189z M18.76,17.189l-0.871-2.361h-0.899l-0.872,2.361h0.813
	l0.084-0.277h0.85l0.085,0.277H18.76L18.76,17.189z M17.674,16.29h-0.467l0.234-0.762L17.674,16.29L17.674,16.29z M19.896,17.189
	v-1.739h0.629v-0.622h-1.979v0.622h0.635v1.739H19.896L19.896,17.189z M21.875,17.231c0.146,0,0.284-0.021,0.414-0.058
	s0.248-0.092,0.357-0.162c0.107-0.072,0.199-0.158,0.277-0.258c0.077-0.1,0.137-0.212,0.18-0.337s0.064-0.26,0.064-0.407
	c0-0.145-0.021-0.279-0.064-0.407c-0.043-0.125-0.103-0.237-0.18-0.337c-0.078-0.1-0.17-0.185-0.277-0.257
	c-0.107-0.07-0.225-0.125-0.355-0.162c-0.129-0.038-0.267-0.058-0.414-0.058s-0.285,0.02-0.414,0.058
	c-0.131,0.038-0.248,0.092-0.355,0.162c-0.107,0.073-0.199,0.158-0.277,0.257c-0.077,0.1-0.137,0.212-0.18,0.337
	c-0.042,0.125-0.064,0.26-0.064,0.407c0,0.145,0.022,0.28,0.064,0.407c0.043,0.125,0.103,0.237,0.18,0.337
	c0.078,0.1,0.17,0.186,0.277,0.258c0.107,0.07,0.225,0.125,0.355,0.162C21.59,17.211,21.729,17.231,21.875,17.231L21.875,17.231z
	 M21.875,16.602c-0.086,0-0.166-0.015-0.235-0.045c-0.069-0.029-0.128-0.072-0.177-0.127c-0.051-0.055-0.088-0.118-0.115-0.188
	c-0.027-0.072-0.04-0.15-0.04-0.232c0-0.082,0.013-0.16,0.04-0.232c0.027-0.073,0.064-0.135,0.115-0.188
	c0.049-0.055,0.109-0.095,0.177-0.127c0.069-0.03,0.147-0.045,0.235-0.045c0.087,0,0.164,0.015,0.234,0.045
	c0.07,0.03,0.13,0.073,0.178,0.127c0.049,0.055,0.087,0.118,0.114,0.188c0.028,0.072,0.04,0.15,0.04,0.232
	c0,0.083-0.012,0.16-0.04,0.232c-0.027,0.072-0.065,0.135-0.114,0.188c-0.051,0.052-0.11,0.095-0.178,0.127
	C22.039,16.584,21.962,16.602,21.875,16.602L21.875,16.602z M24.34,17.231c0.212,0,0.395-0.032,0.545-0.098
	c0.152-0.065,0.27-0.157,0.35-0.28c0.082-0.121,0.122-0.27,0.122-0.444c0-0.11-0.021-0.202-0.058-0.282
	c-0.037-0.078-0.085-0.145-0.15-0.2c-0.063-0.055-0.132-0.098-0.209-0.132c-0.078-0.035-0.158-0.065-0.242-0.085
	c-0.083-0.022-0.162-0.04-0.242-0.055c-0.078-0.015-0.148-0.03-0.211-0.042c-0.063-0.012-0.111-0.027-0.149-0.045
	c-0.037-0.018-0.055-0.04-0.058-0.067c0-0.02,0.006-0.038,0.016-0.055c0.01-0.015,0.029-0.027,0.055-0.037
	c0.027-0.01,0.063-0.015,0.109-0.015c0.076,0,0.152,0.01,0.235,0.025c0.08,0.018,0.159,0.042,0.239,0.078
	c0.078,0.035,0.152,0.077,0.223,0.13l0.383-0.507c-0.135-0.11-0.287-0.192-0.457-0.247c-0.17-0.055-0.354-0.083-0.545-0.083
	c-0.162,0-0.305,0.022-0.428,0.065c-0.122,0.042-0.225,0.103-0.307,0.175c-0.082,0.075-0.145,0.157-0.186,0.25
	c-0.042,0.092-0.063,0.189-0.063,0.29c0,0.115,0.021,0.215,0.059,0.297c0.037,0.083,0.087,0.152,0.149,0.207
	c0.063,0.055,0.132,0.103,0.21,0.138c0.077,0.035,0.16,0.063,0.242,0.085c0.082,0.02,0.164,0.037,0.242,0.052
	c0.078,0.013,0.147,0.025,0.21,0.038c0.062,0.012,0.112,0.027,0.149,0.042c0.037,0.017,0.055,0.04,0.058,0.067
	c0,0.03-0.013,0.054-0.038,0.075c-0.024,0.021-0.057,0.032-0.097,0.042c-0.04,0.008-0.083,0.014-0.128,0.014
	c-0.107,0-0.207-0.016-0.299-0.043c-0.093-0.027-0.18-0.063-0.258-0.11c-0.077-0.045-0.146-0.098-0.205-0.155l-0.371,0.532
	c0.082,0.074,0.177,0.143,0.284,0.197s0.228,0.1,0.362,0.129C24.02,17.217,24.172,17.231,24.34,17.231L24.34,17.231z M26.758,17.231
	c0.146,0,0.284-0.021,0.414-0.058s0.248-0.092,0.355-0.162c0.107-0.072,0.199-0.158,0.276-0.258s0.138-0.212,0.181-0.337
	c0.042-0.125,0.064-0.26,0.064-0.407c0-0.145-0.022-0.279-0.064-0.407c-0.043-0.125-0.104-0.237-0.181-0.337
	c-0.077-0.1-0.169-0.185-0.276-0.257c-0.107-0.07-0.226-0.125-0.355-0.162s-0.268-0.058-0.414-0.058
	c-0.148,0-0.285,0.02-0.415,0.058s-0.247,0.092-0.354,0.162c-0.107,0.073-0.199,0.158-0.277,0.257
	c-0.078,0.1-0.137,0.212-0.18,0.337c-0.043,0.125-0.063,0.26-0.064,0.407c0,0.145,0.021,0.28,0.064,0.407
	c0.043,0.125,0.102,0.237,0.18,0.337s0.17,0.186,0.277,0.258c0.107,0.07,0.225,0.125,0.354,0.162S26.609,17.231,26.758,17.231
	L26.758,17.231z M26.758,16.602c-0.088,0-0.165-0.015-0.235-0.045c-0.069-0.029-0.13-0.072-0.177-0.127
	c-0.051-0.055-0.088-0.118-0.115-0.188c-0.027-0.072-0.04-0.15-0.04-0.232c0-0.082,0.013-0.16,0.04-0.232
	c0.027-0.073,0.064-0.135,0.115-0.188c0.049-0.055,0.109-0.095,0.177-0.127c0.07-0.03,0.147-0.045,0.235-0.045
	c0.084,0,0.164,0.015,0.234,0.045c0.07,0.03,0.127,0.073,0.178,0.127c0.049,0.055,0.087,0.118,0.115,0.188
	c0.027,0.072,0.039,0.15,0.039,0.232c0,0.083-0.012,0.16-0.039,0.232c-0.028,0.072-0.066,0.135-0.115,0.188
	c-0.051,0.052-0.11,0.095-0.178,0.127C26.92,16.584,26.842,16.602,26.758,16.602L26.758,16.602z M28.979,17.189v-0.882h0.799v-0.622
	h-0.799v-0.235h0.824v-0.622h-1.541v2.361H28.979L28.979,17.189z M31.371,17.189v-1.739H32v-0.622h-1.979v0.622h0.635v1.739H31.371
	L31.371,17.189z"/>
<linearGradient id="SVGID_1_" gradientUnits="userSpaceOnUse" x1="1143.0615" y1="-1599.9658" x2="1149.4135" y2="-1610.1788" gradientTransform="matrix(0.2498 0 0 -0.2498 -281.2247 -384.4783)">
	<stop  offset="0" style="stop-color:#C3D8E2"/>
	<stop  offset="1" style="stop-color:#FFFFFF"/>
</linearGradient>
<polygon fill="url(#SVGID_1_)" points="3.881,15.216 5.897,15.315 5.692,17.961 4.318,17.491 5.048,16.337 3.402,16.172 "/>
<linearGradient id="SVGID_2_" gradientUnits="userSpaceOnUse" x1="1138.3545" y1="-1603.4067" x2="1138.3545" y2="-1605.8948" gradientTransform="matrix(0.2498 0 0 -0.2498 -281.2247 -384.4783)">
	<stop  offset="0" style="stop-color:#93B8C8"/>
	<stop  offset="1" style="stop-color:#FFFFFF"/>
</linearGradient>
<polygon fill="url(#SVGID_2_)" points="5.048,16.337 2.6,15.998 1.146,16.195 1.149,16.197 3.489,16.611 "/>
<linearGradient id="SVGID_3_" gradientUnits="userSpaceOnUse" x1="1141.6133" y1="-1595.355" x2="1141.6133" y2="-1591.3149" gradientTransform="matrix(0.2498 0 0 -0.2498 -281.2247 -384.4783)">
	<stop  offset="0" style="stop-color:#93B8C8"/>
	<stop  offset="1" style="stop-color:#FFFFFF"/>
</linearGradient>
<polygon fill="url(#SVGID_3_)" points="6.883,13.745 3.487,13.987 0.939,13.555 3.487,12.993 "/>
<linearGradient id="SVGID_4_" gradientUnits="userSpaceOnUse" x1="1138.4434" y1="-1607.5591" x2="1138.4434" y2="-1615.5151" gradientTransform="matrix(0.2498 0 0 -0.2498 -281.2247 -384.4783)">
	<stop  offset="0" style="stop-color:#93B8C8"/>
	<stop  offset="1" style="stop-color:#FFFFFF"/>
</linearGradient>
<polygon fill="url(#SVGID_4_)" points="5.692,17.961 4.233,17.464 3.497,17.828 3.487,17.834 3.474,17.828 2.97,17.034 
	0.547,17.596 0.549,17.596 3.487,19.02 "/>
<linearGradient id="SVGID_5_" gradientUnits="userSpaceOnUse" x1="1138.6035" y1="-1600.6177" x2="1128.5945" y2="-1598.1179" gradientTransform="matrix(0.2498 0 0 -0.2498 -281.2247 -384.4783)">
	<stop  offset="0" style="stop-color:#C3D8E2"/>
	<stop  offset="1" style="stop-color:#FFFFFF"/>
</linearGradient>
<polygon fill="url(#SVGID_5_)" points="2.6,15.998 3.487,13.987 0.939,13.555 1.146,16.195 "/>
<linearGradient id="SVGID_6_" gradientUnits="userSpaceOnUse" x1="1125.9531" y1="-1603.4609" x2="1139.9238" y2="-1603.4609" gradientTransform="matrix(0.2498 0 0 -0.2498 -281.2247 -384.4783)">
	<stop  offset="0" style="stop-color:#2C5C85"/>
	<stop  offset="1" style="stop-color:#002957"/>
</linearGradient>
<path fill="url(#SVGID_6_)" d="M3.469,19.063l0.02,1.195l-2.85-1.893l-0.092-0.77L3.469,19.063L3.469,19.063z M0,12.973l0.457,3.852
	l3.017,1.002l-0.02-1.142l-2.308-0.49l-0.208-2.64l2.521-0.614l0.025-1.176L0,12.973L0,12.973z M3.459,14.194l-0.013,1.208
	l-1.566-0.057l-0.045-0.992L3.459,14.194z"/>
<linearGradient id="SVGID_7_" gradientUnits="userSpaceOnUse" x1="1139.9141" y1="-1603.4609" x2="1153.8848" y2="-1603.4609" gradientTransform="matrix(0.2498 0 0 -0.2498 -281.2247 -384.4783)">
	<stop  offset="0" style="stop-color:#136296"/>
	<stop  offset="1" style="stop-color:#004F80"/>
</linearGradient>
<path fill="url(#SVGID_7_)" d="M6.336,18.365l-2.847,1.893l0.018-1.195l2.186-1.102l0.205-2.646l-2.37,0.087l-0.018-1.208
	l3.284,0.319L6.336,18.365L6.336,18.365z M6.883,13.745l0.093-0.772l-3.489-1.208l0.022,1.176L6.883,13.745L6.883,13.745z
	 M5.003,17.328l0.045-0.991l-1.534,0.35l-0.018,1.141L5.003,17.328z"/>
</svg>
