<?xml version="1.0" encoding="utf-8"?>
<!-- Generator: Adobe Illustrator 22.1.0, SVG Export Plug-In . SVG Version: 6.00 Build 0)  -->
<svg version="1.1" id="Слой_1" xmlns="http://www.w3.org/2000/svg" xmlns:xlink="http://www.w3.org/1999/xlink" x="0px" y="0px"
	 viewBox="0 0 448.2 400" style="enable-background:new 0 0 448.2 400;" xml:space="preserve">
<style type="text/css">
	.st0{fill:#2370B0;}
	.st1{fill:#2678BD;}
	.st2{fill:#FFFFFF;stroke:#1D5D91;stroke-miterlimit:10;}
	.st3{fill:#1D5D91;}
	.st4{fill:none;stroke:#FFFFFF;stroke-width:2;stroke-linecap:round;stroke-linejoin:round;}
	.st5{enable-background:new    ;}
	.st6{fill:#FFFFFF;}
	.st7{fill:#58626C;}
	.st8{fill:none;}
	.st9{fill:#FBFBFB;}
	.st10{opacity:0.18;fill:#2678BD;enable-background:new    ;}
</style>
<title>appFutura</title>
<g id="Layer_2">
	<polygon class="st0" points="33.7,217.2 54.9,250 33.7,282.8 224.7,282.8 415.7,282.8 394.4,250 415.7,217.2 224.7,217.2 	"/>
	<polygon class="st1" points="354.2,64.1 224.7,26.6 95.1,64.1 95.1,64.1 95.1,64.1 95.1,198.4 95.1,198.4 95.1,332.6 95.1,332.6 
		95.1,332.6 224.7,370.1 354.2,332.6 354.2,332.6 354.2,332.6 354.2,198.4 354.2,198.4 354.2,64.1 354.2,64.1 	"/>
	<rect x="66" y="195.8" class="st2" width="316" height="69"/>
	<polygon class="st3" points="66.7,264.8 95.1,282.8 95.1,264.8 	"/>
	<polygon class="st3" points="382.7,264.8 354.2,282.8 354.2,264.8 	"/>
	<polygon class="st4" points="338.2,80.7 224.7,47.8 111.1,80.7 111.1,80.7 111.1,80.7 111.1,198.4 111.1,198.4 111.1,316 
		111.1,316 111.1,316 224.7,348.9 338.2,316 338.2,316 338.2,316 338.2,198.4 338.2,198.4 338.2,80.7 338.2,80.7 	"/>
	<g class="st5">
		<path class="st6" d="M179.4,286.8h6c1.2,0,2.1,0,2.7,0.1c0.6,0.1,1.1,0.3,1.6,0.6c0.5,0.3,0.8,0.7,1.2,1.3
			c0.3,0.5,0.5,1.1,0.5,1.8c0,0.7-0.2,1.3-0.6,1.9c-0.4,0.6-0.9,1-1.5,1.3c0.9,0.3,1.6,0.7,2.1,1.4s0.7,1.4,0.7,2.3
			c0,0.7-0.2,1.3-0.5,2c-0.3,0.6-0.8,1.2-1.3,1.5c-0.6,0.4-1.2,0.6-2,0.7c-0.5,0.1-1.7,0.1-3.7,0.1h-5.1V286.8z M182.5,289.3v3.5h2
			c1.2,0,1.9,0,2.2-0.1c0.5-0.1,0.9-0.2,1.2-0.5c0.3-0.3,0.4-0.7,0.4-1.2c0-0.5-0.1-0.8-0.4-1.1c-0.3-0.3-0.6-0.5-1.1-0.5
			c-0.3,0-1.2-0.1-2.6-0.1H182.5z M182.5,295.3v4h2.8c1.1,0,1.8,0,2.1-0.1c0.5-0.1,0.8-0.3,1.1-0.6c0.3-0.3,0.4-0.7,0.4-1.3
			c0-0.5-0.1-0.8-0.3-1.1c-0.2-0.3-0.5-0.5-0.9-0.7c-0.4-0.1-1.3-0.2-2.7-0.2H182.5z"/>
		<path class="st6" d="M194.6,301.9v-15h11.1v2.5h-8.1v3.3h7.5v2.5h-7.5v4.1h8.4v2.5H194.6z"/>
		<path class="st6" d="M208.7,301.9V287h3v12.4h7.5v2.5H208.7z"/>
		<path class="st6" d="M235,301.9h-3.3l-1.3-3.4h-6l-1.2,3.4h-3.2l5.9-15h3.2L235,301.9z M229.4,295.9l-2.1-5.6l-2,5.6H229.4z"/>
		<path class="st6" d="M236.6,301.9v-15h6.4c1.6,0,2.8,0.1,3.5,0.4c0.7,0.3,1.3,0.8,1.7,1.4s0.7,1.5,0.7,2.4c0,1.1-0.3,2.1-1,2.8
			c-0.7,0.7-1.7,1.2-3,1.4c0.7,0.4,1.2,0.8,1.6,1.3c0.4,0.5,1,1.3,1.7,2.4l1.8,2.9h-3.6l-2.2-3.3c-0.8-1.2-1.3-1.9-1.6-2.2
			c-0.3-0.3-0.6-0.5-0.9-0.6c-0.3-0.1-0.8-0.2-1.5-0.2h-0.6v6.3H236.6z M239.6,293.2h2.2c1.5,0,2.4-0.1,2.7-0.2s0.6-0.3,0.9-0.6
			s0.3-0.7,0.3-1.1c0-0.5-0.1-0.9-0.4-1.2c-0.3-0.3-0.7-0.5-1.1-0.6c-0.2,0-1-0.1-2.2-0.1h-2.4V293.2z"/>
		<path class="st6" d="M251.7,286.8h3v8.1c0,1.3,0,2.1,0.1,2.5c0.1,0.6,0.4,1.1,0.9,1.5c0.5,0.4,1.2,0.6,2,0.6
			c0.9,0,1.5-0.2,1.9-0.5c0.4-0.4,0.7-0.8,0.8-1.3s0.1-1.4,0.1-2.6v-8.3h3v7.9c0,1.8-0.1,3.1-0.2,3.8c-0.2,0.7-0.5,1.4-0.9,1.9
			c-0.4,0.5-1,0.9-1.8,1.2c-0.7,0.3-1.7,0.5-2.9,0.5c-1.4,0-2.5-0.2-3.3-0.5c-0.7-0.3-1.3-0.8-1.8-1.3c-0.4-0.5-0.7-1.1-0.9-1.7
			c-0.2-0.9-0.3-2.1-0.3-3.8V286.8z"/>
		<path class="st6" d="M266.2,297l3-0.3c0.2,1,0.5,1.7,1.1,2.2c0.5,0.5,1.3,0.7,2.2,0.7c1,0,1.7-0.2,2.2-0.6
			c0.5-0.4,0.7-0.9,0.7-1.5c0-0.4-0.1-0.7-0.3-0.9c-0.2-0.2-0.6-0.5-1.1-0.7c-0.4-0.1-1.2-0.3-2.4-0.7c-1.6-0.4-2.8-0.9-3.4-1.5
			c-0.9-0.8-1.4-1.8-1.4-3c0-0.8,0.2-1.5,0.7-2.1c0.4-0.7,1.1-1.2,1.9-1.5c0.8-0.3,1.8-0.5,3-0.5c1.9,0,3.3,0.4,4.3,1.2
			c1,0.8,1.5,1.9,1.5,3.3l-3,0.1c-0.1-0.8-0.4-1.3-0.8-1.7c-0.4-0.3-1.1-0.5-1.9-0.5c-0.9,0-1.6,0.2-2.1,0.5
			c-0.3,0.2-0.5,0.5-0.5,0.9c0,0.4,0.2,0.7,0.5,0.9c0.4,0.3,1.3,0.7,2.8,1c1.5,0.3,2.6,0.7,3.3,1.1c0.7,0.4,1.3,0.9,1.7,1.5
			c0.4,0.6,0.6,1.4,0.6,2.4c0,0.9-0.2,1.7-0.7,2.4c-0.5,0.8-1.2,1.3-2,1.7c-0.9,0.4-2,0.5-3.3,0.5c-1.9,0-3.4-0.4-4.4-1.3
			C267,299.9,266.4,298.7,266.2,297z"/>
	</g>
	<g class="st5">
		<path class="st6" d="M178.7,107.8V92.5h-5.5v-3.1h14.7v3.1h-5.5v15.3H178.7z"/>
		<path class="st6" d="M188.5,98.7c0-1.9,0.3-3.5,0.8-4.7c0.4-0.9,1-1.8,1.7-2.5c0.7-0.7,1.5-1.3,2.4-1.7c1.1-0.5,2.5-0.7,4-0.7
			c2.7,0,4.9,0.8,6.5,2.5s2.4,4,2.4,7c0,3-0.8,5.3-2.4,7c-1.6,1.7-3.8,2.5-6.5,2.5c-2.7,0-4.9-0.8-6.5-2.5
			C189.3,103.9,188.5,101.6,188.5,98.7z M192.4,98.6c0,2.1,0.5,3.7,1.4,4.7c1,1.1,2.2,1.6,3.7,1.6c1.5,0,2.7-0.5,3.7-1.6
			s1.4-2.7,1.4-4.8c0-2.1-0.5-3.7-1.4-4.7c-0.9-1-2.2-1.6-3.7-1.6c-1.5,0-2.8,0.5-3.7,1.6C192.8,94.9,192.4,96.4,192.4,98.6z"/>
		<path class="st6" d="M208.8,107.8V89.4h6c2.3,0,3.7,0.1,4.4,0.3c1.1,0.3,1.9,0.9,2.7,1.8c0.7,0.9,1.1,2.1,1.1,3.6
			c0,1.1-0.2,2.1-0.6,2.9c-0.4,0.8-0.9,1.4-1.6,1.8c-0.6,0.4-1.3,0.7-1.9,0.9c-0.9,0.2-2.2,0.3-3.9,0.3h-2.4v7H208.8z M212.5,92.5
			v5.2h2c1.5,0,2.4-0.1,2.9-0.3c0.5-0.2,0.9-0.5,1.2-0.9c0.3-0.4,0.4-0.9,0.4-1.4c0-0.7-0.2-1.2-0.6-1.7c-0.4-0.4-0.9-0.7-1.5-0.8
			c-0.4-0.1-1.3-0.1-2.7-0.1H212.5z"/>
		<path class="st6" d="M247.3,107.8h-4l-1.6-4.2h-7.4l-1.5,4.2h-3.9l7.2-18.4h3.9L247.3,107.8z M240.5,100.5l-2.5-6.8l-2.5,6.8
			H240.5z"/>
		<path class="st6" d="M248.8,107.8V89.4h6c2.3,0,3.7,0.1,4.4,0.3c1.1,0.3,1.9,0.9,2.7,1.8c0.7,0.9,1.1,2.1,1.1,3.6
			c0,1.1-0.2,2.1-0.6,2.9s-0.9,1.4-1.6,1.8c-0.6,0.4-1.3,0.7-1.9,0.9c-0.9,0.2-2.2,0.3-3.9,0.3h-2.4v7H248.8z M252.5,92.5v5.2h2
			c1.5,0,2.4-0.1,2.9-0.3c0.5-0.2,0.9-0.5,1.2-0.9c0.3-0.4,0.4-0.9,0.4-1.4c0-0.7-0.2-1.2-0.6-1.7c-0.4-0.4-0.9-0.7-1.5-0.8
			c-0.4-0.1-1.3-0.1-2.7-0.1H252.5z"/>
		<path class="st6" d="M265.5,107.8V89.4h6c2.3,0,3.7,0.1,4.4,0.3c1.1,0.3,1.9,0.9,2.7,1.8c0.7,0.9,1.1,2.1,1.1,3.6
			c0,1.1-0.2,2.1-0.6,2.9c-0.4,0.8-0.9,1.4-1.6,1.8s-1.3,0.7-1.9,0.9c-0.9,0.2-2.2,0.3-3.9,0.3h-2.4v7H265.5z M269.2,92.5v5.2h2
			c1.5,0,2.4-0.1,2.9-0.3c0.5-0.2,0.9-0.5,1.2-0.9c0.3-0.4,0.4-0.9,0.4-1.4c0-0.7-0.2-1.2-0.6-1.7c-0.4-0.4-0.9-0.7-1.5-0.8
			c-0.4-0.1-1.3-0.1-2.7-0.1H269.2z"/>
	</g>
	<g class="st5">
		<path class="st6" d="M134.8,124.4h6.8c1.5,0,2.7,0.1,3.5,0.4c1.1,0.3,2,0.9,2.8,1.7c0.8,0.8,1.4,1.8,1.8,3
			c0.4,1.2,0.6,2.6,0.6,4.4c0,1.5-0.2,2.8-0.6,3.9c-0.5,1.3-1.1,2.4-2,3.3c-0.6,0.6-1.5,1.1-2.6,1.5c-0.8,0.3-1.9,0.4-3.3,0.4h-7
			V124.4z M138.5,127.5v12.2h2.8c1,0,1.8-0.1,2.3-0.2c0.6-0.2,1.1-0.4,1.5-0.8c0.4-0.4,0.7-1,1-1.8s0.4-2,0.4-3.4s-0.1-2.5-0.4-3.3
			c-0.3-0.8-0.6-1.4-1.1-1.8c-0.5-0.4-1-0.7-1.7-0.9c-0.5-0.1-1.5-0.2-3.1-0.2H138.5z"/>
		<path class="st6" d="M152.9,142.8v-18.4h13.7v3.1h-9.9v4.1h9.3v3.1h-9.3v5h10.3v3.1H152.9z"/>
		<path class="st6" d="M174.3,142.8l-6.6-18.4h4l4.7,13.6l4.5-13.6h3.9l-6.6,18.4H174.3z"/>
		<path class="st6" d="M186.2,142.8v-18.4h13.7v3.1h-9.9v4.1h9.3v3.1h-9.3v5h10.3v3.1H186.2z"/>
		<path class="st6" d="M203,142.8v-18.3h3.7v15.2h9.3v3.1H203z"/>
		<path class="st6" d="M217.4,133.7c0-1.9,0.3-3.5,0.8-4.7c0.4-0.9,1-1.8,1.7-2.5c0.7-0.7,1.5-1.3,2.4-1.7c1.1-0.5,2.5-0.7,4-0.7
			c2.7,0,4.9,0.8,6.5,2.5s2.4,4,2.4,7c0,3-0.8,5.3-2.4,7c-1.6,1.7-3.8,2.5-6.5,2.5c-2.7,0-4.9-0.8-6.5-2.5
			C218.2,138.9,217.4,136.6,217.4,133.7z M221.2,133.6c0,2.1,0.5,3.7,1.4,4.7c1,1.1,2.2,1.6,3.7,1.6c1.5,0,2.7-0.5,3.7-1.6
			c1-1.1,1.4-2.7,1.4-4.8c0-2.1-0.5-3.7-1.4-4.7c-0.9-1-2.2-1.6-3.7-1.6s-2.8,0.5-3.7,1.6C221.7,129.9,221.2,131.4,221.2,133.6z"/>
		<path class="st6" d="M237.6,142.8v-18.4h6c2.3,0,3.7,0.1,4.4,0.3c1.1,0.3,1.9,0.9,2.7,1.8c0.7,0.9,1.1,2.1,1.1,3.6
			c0,1.1-0.2,2.1-0.6,2.9c-0.4,0.8-0.9,1.4-1.6,1.8s-1.3,0.7-1.9,0.9c-0.9,0.2-2.2,0.3-3.9,0.3h-2.4v7H237.6z M241.4,127.5v5.2h2
			c1.5,0,2.4-0.1,2.9-0.3c0.5-0.2,0.9-0.5,1.2-0.9c0.3-0.4,0.4-0.9,0.4-1.4c0-0.7-0.2-1.2-0.6-1.7c-0.4-0.4-0.9-0.7-1.5-0.8
			c-0.4-0.1-1.3-0.1-2.7-0.1H241.4z"/>
		<path class="st6" d="M254.2,142.8v-18.4h5.6l3.3,12.6l3.3-12.6h5.6v18.4h-3.5v-14.5l-3.7,14.5h-3.6l-3.6-14.5v14.5H254.2z"/>
		<path class="st6" d="M275.2,142.8v-18.4h13.7v3.1H279v4.1h9.3v3.1H279v5h10.3v3.1H275.2z"/>
		<path class="st6" d="M291.9,142.8v-18.4h3.6l7.5,12.3v-12.3h3.5v18.4h-3.7l-7.4-12v12H291.9z"/>
		<path class="st6" d="M314.1,142.8v-15.3h-5.5v-3.1h14.7v3.1h-5.5v15.3H314.1z"/>
	</g>
	<g class="st5">
		<path class="st6" d="M174.5,171l3.6,1.1c-0.6,2-1.5,3.5-2.8,4.5c-1.3,1-2.9,1.5-4.9,1.5c-2.4,0-4.5-0.8-6-2.5
			c-1.6-1.7-2.4-4-2.4-6.9c0-3.1,0.8-5.5,2.4-7.2c1.6-1.7,3.7-2.5,6.3-2.5c2.3,0,4.1,0.7,5.5,2c0.8,0.8,1.5,1.9,1.9,3.4l-3.7,0.9
			c-0.2-1-0.7-1.7-1.4-2.3c-0.7-0.6-1.5-0.8-2.5-0.8c-1.4,0-2.5,0.5-3.3,1.5c-0.9,1-1.3,2.6-1.3,4.8c0,2.3,0.4,4,1.3,5
			c0.8,1,1.9,1.5,3.3,1.5c1,0,1.8-0.3,2.6-0.9C173.6,173.4,174.1,172.4,174.5,171z"/>
		<path class="st6" d="M180,168.7c0-1.9,0.3-3.5,0.8-4.7c0.4-0.9,1-1.8,1.7-2.5c0.7-0.7,1.5-1.3,2.4-1.7c1.1-0.5,2.5-0.7,4-0.7
			c2.7,0,4.9,0.8,6.5,2.5s2.4,4,2.4,7c0,3-0.8,5.3-2.4,7c-1.6,1.7-3.8,2.5-6.5,2.5c-2.7,0-4.9-0.8-6.5-2.5
			C180.8,173.9,180,171.6,180,168.7z M183.8,168.6c0,2.1,0.5,3.7,1.4,4.7c1,1.1,2.2,1.6,3.7,1.6c1.5,0,2.7-0.5,3.7-1.6
			s1.4-2.7,1.4-4.8c0-2.1-0.5-3.7-1.4-4.7c-0.9-1-2.2-1.6-3.7-1.6c-1.5,0-2.8,0.5-3.7,1.6C184.3,164.9,183.8,166.4,183.8,168.6z"/>
		<path class="st6" d="M200.2,177.8v-18.4h5.6l3.3,12.6l3.3-12.6h5.6v18.4h-3.5v-14.5l-3.7,14.5h-3.6l-3.6-14.5v14.5H200.2z"/>
		<path class="st6" d="M221.2,177.8v-18.4h6c2.3,0,3.7,0.1,4.4,0.3c1.1,0.3,1.9,0.9,2.7,1.8c0.7,0.9,1.1,2.1,1.1,3.6
			c0,1.1-0.2,2.1-0.6,2.9s-0.9,1.4-1.6,1.8c-0.6,0.4-1.3,0.7-1.9,0.9c-0.9,0.2-2.2,0.3-3.9,0.3h-2.4v7H221.2z M224.9,162.5v5.2h2
			c1.5,0,2.4-0.1,2.9-0.3c0.5-0.2,0.9-0.5,1.2-0.9c0.3-0.4,0.4-0.9,0.4-1.4c0-0.7-0.2-1.2-0.6-1.7c-0.4-0.4-0.9-0.7-1.5-0.8
			c-0.4-0.1-1.3-0.1-2.7-0.1H224.9z"/>
		<path class="st6" d="M252.6,177.8h-4.1l-1.6-4.2h-7.4l-1.5,4.2h-4l7.2-18.4h3.9L252.6,177.8z M245.7,170.5l-2.5-6.8l-2.5,6.8
			H245.7z"/>
		<path class="st6" d="M254.1,177.8v-18.4h3.6l7.5,12.3v-12.3h3.5v18.4H265l-7.4-12v12H254.1z"/>
		<path class="st6" d="M277,177.8V170l-6.8-10.7h4.4l4.3,7.3l4.3-7.3h4.3l-6.8,10.7v7.7H277z"/>
	</g>
	<path class="st1" d="M102,220.4l2.1,6.5c0.1,0.3,0.3,0.4,0.6,0.4h6.9c0.4,0,0.6,0.3,0.6,0.6c0,0.2-0.1,0.4-0.3,0.5l-5.6,4
		c-0.2,0.2-0.3,0.5-0.2,0.7l2.1,6.5c0.1,0.3,0,0.7-0.4,0.8c-0.2,0.1-0.4,0-0.6-0.1l-5.6-4c-0.2-0.2-0.5-0.2-0.8,0l-5.6,4
		c-0.3,0.2-0.7,0.2-0.9-0.1c-0.1-0.2-0.2-0.4-0.1-0.6l2.1-6.5c0.1-0.3,0-0.6-0.2-0.7l-5.6-4c-0.3-0.2-0.4-0.6-0.1-0.9
		c0.1-0.2,0.3-0.3,0.5-0.3H98c0.3,0,0.5-0.2,0.6-0.4l2.1-6.5c0.1-0.4,0.4-0.6,0.8-0.5C101.8,220,101.9,220.2,102,220.4z"/>
	<path class="st1" d="M348.6,220.4l2.1,6.5c0.1,0.3,0.3,0.5,0.6,0.4h6.9c0.4,0,0.6,0.3,0.6,0.6c0,0.2-0.1,0.4-0.3,0.5l-5.6,4
		c-0.2,0.2-0.3,0.5-0.2,0.7l2.1,6.5c0.1,0.3,0,0.7-0.4,0.8c-0.2,0.1-0.4,0-0.6-0.1l-5.6-4c-0.2-0.2-0.5-0.2-0.8,0l-5.6,4
		c-0.3,0.2-0.7,0.2-0.9-0.1c-0.1-0.2-0.2-0.4-0.1-0.6l2.1-6.5c0.1-0.3,0-0.6-0.2-0.7l-5.6-4c-0.3-0.2-0.4-0.6-0.1-0.9
		c0.1-0.2,0.3-0.3,0.5-0.3h6.9c0.3,0,0.5-0.2,0.6-0.4l2.1-6.5c0.1-0.3,0.4-0.5,0.8-0.5C348.3,220,348.5,220.2,348.6,220.4z"/>
	<path class="st1" d="M288,224.1c0-0.5,0-0.9,0-1.4c-0.2-0.9,0.3-1.9,1.2-2.2c0.6-0.1,1.2-0.1,1.7,0.2c0.2,0.2,0.4,0.4,0.5,0.6
		s0.2,0.6,0.6,0.2l0.7-0.4c1-0.4,2-0.6,3-0.6c1.7,0,2.4,0.8,2.1,2.5c-0.4,0.7-1.2,1.2-2,1.1c-2.2,0.1-4,1.7-4.1,3.9
		c-0.1,3.3,0,6.6,0,9.9c0,0.6-0.3,1.2-0.7,1.7l0,0l-0.3,0.2c-1.2,0.7-2,0.1-2.7-0.9c0-1.1,0-2.2,0-3.2L288,224.1z"/>
	<path class="st1" d="M270.7,236.8c-1.1-1.6-1.6-3.4-1.5-5.3c0.1-3,0-5.9,0-8.9c0-1.3,0.7-2.1,1.8-2.1c1,0,1.9,0.8,1.9,1.9
		c0,0.1,0,0.2,0,0.2v9.3c0,2.5,2,4.5,4.5,4.5s4.5-2,4.5-4.5l0,0c0-3.3,0-6.5,0-9.8c0.1-1,0.9-1.7,1.8-1.6c0.1,0,0.1,0,0.2,0
		c1,0.1,1.8,0.9,1.7,1.9c0,0.3,0,0.7,0,1c0,0.1,0,0.3,0,0.5c0,4.1,0,8.1,0,12.2c0,0.8,0,1.6,0,2.5c-0.2,0.7-0.7,1.3-1.4,1.5
		c-0.7,0.3-1.6,0.1-2-0.6c-0.3-0.6-0.6-0.5-1.1-0.2c-1.1,0.6-2.4,1-3.7,1c-1.7,0-3.3-0.5-4.7-1.5C272,238.1,271.3,237.5,270.7,236.8
		z"/>
	<path class="st1" d="M261.5,214.7c0.1,1.7,0.1,3.5,0.1,5.2c0,0.7,0.2,0.9,0.9,0.9c0.6,0,1.3,0,1.9,0c1-0.1,1.9,0.7,2,1.7
		c0,0,0,0.1,0,0.1c-0.1,1-1,1.8-2,1.8c-0.7,0-1.5,0-2.2,0c-0.4,0-0.5,0.1-0.5,0.5c0,2.6,0,5.1,0,7.7c0,1,0.5,2,1.4,2.6
		c0.7,0.7,1.6,1.1,2.6,1.2c0.6-0.1,1.2,0.1,1.7,0.5c0.6,0.6,0.7,1.4,0.4,2.2c-0.9,1.3-2.1,1.1-3.5,0.9c-2.4-0.6-4.4-2.1-5.6-4.2
		c-1.1-2.9-0.6-5.9-0.7-8.8c-0.1-4.1,0-8.2,0-12.3c0.1-0.5,0.3-0.9,0.7-1.2c0.7-0.3,1.5-0.3,2.1,0.1
		C261.2,213.7,261.5,214.2,261.5,214.7z"/>
	<path class="st7" d="M188.2,220.6c0.7,0,1,0.6,1.5,1c0,0.1,0,0.1,0,0.2c0,3.8,0,7.6,0,11.3v4.8c0.1,0.9-0.5,1.7-1.3,2
		c-0.9,0.3-1.8-0.1-2.2-0.9c-0.3-0.5-0.5-0.1-0.7,0c-2.2,1.2-4.9,1.4-7.3,0.4c-2.3-0.9-4.1-2.8-4.8-5.2c-0.1-0.3-0.1-0.7-0.1-1
		c0-2.6-0.4-5.1,0.4-7.6c1.1-2.5,3.3-4.4,6-4.9c0.9-0.1,1.8-0.2,2.7-0.1c1.1,0.2,2.1,0.5,3,1c0.3,0.2,0.5,0.1,0.7-0.2
		c0.2-0.5,0.7-0.8,1.2-0.8L188.2,220.6z M186.1,230.3v-1.8c0-2.4-1.9-4.4-4.3-4.4c-2.4-0.2-4.5,1.6-4.7,4c0,0.1,0,0.1,0,0.2
		c-0.1,1.4-0.1,2.7,0,4.1c0.1,2.4,2.2,4.2,4.6,4.1c0,0,0.1,0,0.1,0c2.4,0,4.4-2,4.3-4.5c0,0,0,0,0,0L186.1,230.3z"/>
	<path class="st1" d="M255.5,239.2c-1.2,1.2-2.2,1.1-3.2-0.2c-0.2-0.2-0.3-0.1-0.5-0.1c-2.5,1.4-5.6,1.5-8.2,0.2
		c-0.6-0.4-1.2-0.8-1.7-1.2c-1.8-1.7-2.7-4.1-2.5-6.6c0-2.9,0-5.8,0-8.7c0-1.2,0.6-2.1,1.9-2c1,0,1.8,0.8,1.8,1.7c0,0,0,0.1,0,0.1
		c0,2.7,0,5.4,0,8.1c0,0.3,0,0.7,0.1,1c-0.3,2.3,1.4,4.5,3.7,4.8c0,0,0,0,0.1,0c2.3,0.4,4.4-1,5-3.3c0.1-0.4,0.2-0.9,0.1-1.4
		c0-3,0-6.1,0-9.1c0-1.3,0.7-2.2,1.9-2.2s1.8,0.9,1.8,2.2c0,4,0,8,0,11.9c0,0.3,0,0.6,0,0.9c0,0.7-0.1,1.4,0,2.1
		C255.8,238.2,255.7,238.7,255.5,239.2z"/>
	<path class="st1" d="M229.1,232.3c0-3.6,0-7.3,0-10.9c-0.1-1.9,0.5-3.8,1.8-5.3c1.6-2,4.1-3,6.7-2.8c0.9,0.1,1.6,0.9,1.5,1.8
		c0,0.9-0.8,1.7-1.8,1.7c-1.4,0-2.8,0.6-3.7,1.8c-0.4,0.5-0.7,1.1-0.8,1.7c-0.1,0.4,0,0.6,0.5,0.6c0.8,0,1.5,0,2.2,0
		c1-0.1,1.9,0.6,1.9,1.6c0,0.1,0,0.1,0,0.2c0,1-0.9,1.8-1.9,1.8c0,0-0.1,0-0.1,0c-0.7,0-1.4,0-2.1,0c-0.5,0-0.6,0.1-0.6,0.6
		c0,1.9,0,3.8,0,5.6v7.4c0.1,1-0.5,1.9-1.5,2c-0.1,0-0.2,0-0.3,0c-1,0.1-1.8-0.7-1.9-1.6c0-0.1,0-0.2,0-0.3
		C229.1,236.2,229.1,234.2,229.1,232.3z"/>
	<polyline class="st8" points="192.4,221.6 192.4,221.6 192.4,221.6 	"/>
	<path class="st7" d="M208.6,228.4c-0.1-3.5-2.5-6.6-5.9-7.5c-2.1-0.6-4.4-0.3-6.4,0.7c-0.2,0.1-0.5,0.3-0.8-0.1
		c-0.6-0.9-1.7-1.1-2.6-0.5c-0.3,0.2-0.5,0.4-0.6,0.7c-0.1,0.1-0.1,0.1-0.1,0.1c0,0.4-0.1,0.8-0.1,1.1c0,3.9,0,7.8,0,11.6
		c0,3.7,0,7.4,0,11.2c-0.1,0.9,0.6,1.8,1.5,1.9c0.1,0,0.2,0,0.3,0c1,0.1,1.8-0.7,1.9-1.6c0-0.1,0-0.2,0-0.2c0-0.3,0-0.6,0-0.9V239
		c0.2-0.1,0.4,0,0.5,0.1c1.7,0.9,3.7,1.3,5.6,0.9c3.1-0.5,5.6-2.9,6.4-5.9C208.6,232.2,208.6,230.3,208.6,228.4z M204.9,232.2
		c0,2.5-2,4.5-4.5,4.5s-4.5-2-4.5-4.5c0-1.3,0-2.6,0-3.8c0-2.5,2-4.5,4.5-4.5c2.5,0,4.5,2,4.5,4.5c0,0.6,0,1.2,0,1.9
		S204.9,231.6,204.9,232.2L204.9,232.2z"/>
	<path class="st7" d="M227,228.4c-0.1-3.5-2.5-6.6-5.9-7.5c-2.1-0.6-4.4-0.3-6.3,0.7c-0.2,0.1-0.5,0.3-0.8-0.1
		c-0.6-0.9-1.7-1.1-2.6-0.5c-0.3,0.2-0.5,0.4-0.6,0.7c-0.1,0.1-0.1,0.1-0.1,0.1c0,0.4-0.1,0.8-0.1,1.1c0,3.9,0,7.8,0,11.6
		c0,3.7,0,7.4,0,11.2c-0.1,0.9,0.6,1.8,1.5,1.9c0.1,0,0.2,0,0.3,0c1,0.1,1.8-0.7,1.9-1.6c0-0.1,0-0.2,0-0.2V239
		c0.2-0.1,0.4,0,0.5,0.1c1.7,0.9,3.7,1.3,5.6,0.9c3.1-0.5,5.6-2.9,6.4-5.9C227,232.2,227.1,230.3,227,228.4z M223.3,232.2
		c0,2.4-2.1,4.4-4.5,4.3c0,0,0,0,0,0c-2.4,0.1-4.4-1.8-4.5-4.2c-0.1-1.3,0-2.6,0-3.8c0-2.5,2-4.5,4.5-4.5c2.5,0,4.5,2,4.5,4.5
		c0,0.6,0,1.2,0,1.9S223.4,231.6,223.3,232.2L223.3,232.2z"/>
	<path class="st1" d="M141.5,215.8h19.4c2.8,0,5,2.2,5,5v19.4c0,2.8-2.2,5-5,5h-19.4c-2.8,0-5-2.2-5-5v-19.4
		C136.5,218,138.8,215.8,141.5,215.8z"/>
	<path class="st9" d="M161,239.9c-0.5,0.3-1.1,0.2-1.6-0.1c-2.3-1.3-4.6-2.6-6.8-3.9c-0.6-0.5-1.5-0.6-2.2-0.3
		c2.3-1.3,4.6-2.5,6.8-3.9c0.2-0.1,0.5-0.3,0.8-0.4l3.3,5.9c0.2,0.3,0.3,0.6,0.4,1C161.8,238.9,161.5,239.5,161,239.9z"/>
	<path class="st10" d="M161,239.9c-0.5,0.3-1.1,0.2-1.6-0.1c-2.3-1.3-4.6-2.6-6.8-3.9c-0.6-0.5-1.5-0.6-2.2-0.3
		c2.3-1.3,4.6-2.5,6.8-3.9c0.2-0.1,0.5-0.3,0.8-0.4l3.3,5.9c0.2,0.3,0.3,0.6,0.4,1C161.8,238.9,161.5,239.5,161,239.9z"/>
	<path class="st9" d="M158.1,231.3c-0.3,0.1-0.5,0.2-0.8,0.4c-2.2,1.4-4.5,2.6-6.8,3.9h-0.1l-0.3,0.1l-0.2,0.1
		c-2.2,1.4-4.6,2.6-6.9,3.9c-1.2,0.7-2.3,0.1-2.3-1.4c0-0.4,0.2-0.8,0.4-1.2c3-5,5.9-10.1,8.9-15.2c0.9-1.5,1.9-1.4,2.8,0l1.1,1.9
		C155.3,226.3,156.7,228.8,158.1,231.3z"/>
	<path class="st1" d="M314.5,237.5v-4.2l0,0v-3.1c0-0.6,0-1.2,0-1.9v-0.2v-3.9v-2.1l0,0c-0.1-1-1-1.7-2-1.6c-0.5,0.1-1,0.4-1.3,0.8
		c-0.2,0.4-0.4,0.4-0.8,0.2c-0.9-0.5-1.8-0.8-2.8-0.9c-2.9-0.4-5.9,0.7-7.7,3c-1.2,1.7-1.8,3.8-1.6,5.9c0.1,1.3-0.1,2.6,0.1,3.9
		c0.3,2,1.4,3.8,3.1,5.1c2.7,2,6.3,2.1,9.1,0.5c0.3-0.2,0.5-0.1,0.6,0.2c0.3,0.7,1.1,1.1,1.9,1C314.1,239.7,314.7,238.7,314.5,237.5
		L314.5,237.5L314.5,237.5z M310.8,230.3v1.7c0,2.5-2,4.5-4.5,4.5c-2.3,0-4.3-1.8-4.5-4.1c-0.1-1.5-0.1-3,0-4.5c0.3-2.5,2.5-4.2,5-4
		c2.2,0.3,3.8,2,4,4.2C310.8,228.9,310.8,229.6,310.8,230.3z"/>
</g>
</svg>
