<svg id="founded.svg" xmlns="http://www.w3.org/2000/svg" xmlns:xlink="http://www.w3.org/1999/xlink" viewBox="0 0 98 87"><defs><style>.cls-1{fill:#2678bd;}.cls-2{fill:#fff;fill-opacity:0;}.cls-3,.cls-7{fill:none;}.cls-3{stroke:#2678bd;stroke-miterlimit:10;stroke-width:2px;stroke-dasharray:3 3;}.cls-4{clip-path:url(#clip-path);}.cls-5{clip-path:url(#clip-path-2);}.cls-6{fill:#4385f4;opacity:0.5;isolation:isolate;}</style><clipPath id="clip-path"><path class="cls-1" d="M51.3,42.16c-.42.21-.83.42-1.28.6l-.26.06-.27-.12c-.45-.18-.86-.39-1.28-.6l.69-1.6h1.66Z"/></clipPath><clipPath id="clip-path-2"><rect class="cls-1" x="41.45" y="24.21" width="16.56" height="0.8"/></clipPath></defs><title>all_logos</title><rect class="cls-2" width="98" height="87"/><path class="cls-1" d="M49.1,4a39.54,39.54,0,1,1-28,11.58A39.54,39.54,0,0,1,49.1,4m0-1.78A41.29,41.29,0,1,0,90.42,43.53,41.33,41.33,0,0,0,49.1,2.21Z"/><path class="cls-3" d="M49,81.76A38.23,38.23,0,1,0,10.75,43.53,38.26,38.26,0,0,0,49,81.76"/><polygon class="cls-1" points="52.1 43.89 47.41 43.89 48.21 42.16 48.9 40.59 50.62 40.59 51.3 42.16 52.1 43.89"/><path class="cls-1" d="M55.1,43.89H44.44A1.06,1.06,0,0,0,43.37,45V48.4H56.11V45a1,1,0,0,0-.92-1.06H55.1"/><path class="cls-1" d="M51.3,42.16c-.42.21-.83.42-1.28.6l-.26.06-.27-.12c-.45-.18-.86-.39-1.28-.6l.69-1.6h1.66Z"/><g class="cls-4"><rect class="cls-1" x="46.73" y="39.05" width="6.06" height="5.25"/></g><rect class="cls-1" x="41.45" y="24.21" width="16.56" height="0.8"/><g class="cls-5"><rect class="cls-1" x="39.96" y="22.72" width="19.53" height="3.77"/></g><path class="cls-1" d="M58.08,25.78V24.21h0a.69.69,0,0,0,.61-.65.62.62,0,0,0-.62-.68H41.45a.68.68,0,0,0-.66.65.65.65,0,0,0,.63.69h0v1.57H37V28a12.86,12.86,0,0,0,8,11.81,13.39,13.39,0,0,0,1.83.58,13.07,13.07,0,0,0,3,1.68,13.2,13.2,0,0,0,3-1.68,15.36,15.36,0,0,0,1.82-.58A12.85,12.85,0,0,0,62.58,28V25.78Zm-16.52,9A10.83,10.83,0,0,1,39.1,28v-.06h2.36v1.95a13,13,0,0,0,1.72,6.47A10.65,10.65,0,0,1,41.56,34.74Zm6.36-4.6v5.64H45.54v-6.2A2.66,2.66,0,0,1,47.8,27.2h6.11l0,2.35H48.36A.62.62,0,0,0,47.92,30.14Zm6.2,3.24A2.51,2.51,0,0,1,52,35.81H48.57V33.38h2.88a.32.32,0,0,0,.27-.3v-.56H48.57V30.65c0-.45.47-.39.47-.39v0h5.08ZM58,34.74a11.26,11.26,0,0,1-1.52,1.49,12.84,12.84,0,0,0,1.65-6.3v-2h2.27V28h.06A10.49,10.49,0,0,1,58,34.74Z"/><path class="cls-6" d="M29.78,73l0,0A0,0,0,0,0,29.78,73Zm-4.57-3.71ZM21.5,64.9Zm-4.87-10-.92-5.14-.21-5.19ZM16,39.46Zm1.06-5Zm1.67-4.93Z"/><path class="cls-1" d="M60.62,67.28a.48.48,0,0,0,.12-.36v-.3a.57.57,0,0,0-.12-.35.39.39,0,0,0-.3-.12.38.38,0,0,0-.29.12.47.47,0,0,0-.12.35v.3a.58.58,0,0,0,.12.36.38.38,0,0,0,.29.12A.63.63,0,0,0,60.62,67.28Zm-.95.26a.8.8,0,0,1-.24-.59v-.3a.83.83,0,0,1,.24-.59,1,1,0,0,1,1.28,0,.83.83,0,0,1,.24.59V67a.8.8,0,0,1-.24.59,1.11,1.11,0,0,1-1.28,0Zm-2.05,0a.79.79,0,0,1-.23-.59v-.3a.82.82,0,0,1,.23-.59.81.81,0,0,1,.63-.21,1.23,1.23,0,0,1,.47.09,1.17,1.17,0,0,1,.3.24.48.48,0,0,1,.09.27s0,.06,0,.06,0,0-.06,0h-.39s0,0,0-.06a.54.54,0,0,0-.15-.21.48.48,0,0,0-.23-.06.39.39,0,0,0-.3.12.5.5,0,0,0-.12.35v.24c0,.3.15.48.39.48a.6.6,0,0,0,.23-.06.54.54,0,0,0,.15-.21s0,0,0-.06,0,0,.06,0H59s.06,0,.06,0,0,0,0,.06a.48.48,0,0,1-.09.27.6.6,0,0,1-.3.23.88.88,0,0,1-.47.09.66.66,0,0,1-.6-.18Zm-1.07.15a.07.07,0,0,1,0-.06v-.35s0-.09,0-.09h.36s0,0,.06,0,0,0,0,.06v.35s0,0,0,.06,0,0-.06,0h-.36a0,0,0,0,1,0,0Zm-1.66,0a.84.84,0,0,1-.26-.17.26.26,0,0,1-.09-.18s0,0,0-.06,0,0,.06,0h.29s0,0,.06,0l.09.06a.45.45,0,0,0,.33.12.6.6,0,0,0,.23-.06.16.16,0,0,0,.09-.15.18.18,0,0,0,0-.12.85.85,0,0,0-.14-.09l-.33-.09a.79.79,0,0,1-.45-.21.5.5,0,0,1-.06-.62.65.65,0,0,1,.27-.21,1,1,0,0,1,.42-.09.91.91,0,0,1,.41.09,1.41,1.41,0,0,1,.27.18.26.26,0,0,1,.09.18s0,0,0,.06,0,0-.06,0h-.27s-.06,0-.06,0-.06,0-.09-.06l-.11-.09a.33.33,0,0,0-.15,0,.29.29,0,0,0-.21.06c-.06,0-.06.09-.06.15a.18.18,0,0,0,0,.12.66.66,0,0,0,.15.09l.29.08c.42.09.66.27.66.57a.51.51,0,0,1-.21.41.89.89,0,0,1-.62.15,1.35,1.35,0,0,1-.54-.09Zm-3.44,0s0,0,0-.06V65.94s0-.06,0-.06,0,0,.06,0h.27s0,0,0,0,0,0,0,.06v.12a.69.69,0,0,1,.51-.24.58.58,0,0,1,.56.33.91.91,0,0,1,.24-.24.6.6,0,0,1,.33-.09A.58.58,0,0,1,54,66a.76.76,0,0,1,.18.56v1s0,0,0,.06,0,0-.06,0h-.3s-.06,0-.06,0a.07.07,0,0,1,0-.06v-1a.59.59,0,0,0-.09-.32.25.25,0,0,0-.24-.09.34.34,0,0,0-.24.09.42.42,0,0,0-.09.32v1s0,0,0,.06,0,0-.06,0h-.29a.08.08,0,0,1-.09-.09v-1a.59.59,0,0,0-.09-.32.36.36,0,0,0-.48,0,.42.42,0,0,0-.09.32v1s0,0,0,.06,0,0,0,0h-.3s-.06,0-.06,0Zm-1.49,0a.07.07,0,0,1,0-.06V65.94s0-.06,0-.06,0,0,.06,0h.3s.06,0,.06,0,0,0,0,.06v.15a.68.68,0,0,1,.5-.24h.15s.06,0,.06,0,0,0,0,.06v.27s0,0,0,.06,0,0-.06,0H50.8a.48.48,0,0,0-.27.09.39.39,0,0,0-.09.26v1s0,0,0,.06,0,0-.06,0H50a0,0,0,0,1,0,0Zm-2,0s0,0,0-.06V66.24h-.3s-.09,0-.09-.06h0V66s0,0,0-.06,0,0,.06,0H48v-.15a.71.71,0,0,1,.17-.47.68.68,0,0,1,.54-.15h.74s.06,0,.06,0,0,0,0,.06v.21s0,.06,0,.06,0,0-.06,0h-.71a.56.56,0,0,0-.21.06.47.47,0,0,0-.06.2v.12h1s.06,0,.06,0,0,0,0,.06v1.69s0,0,0,.06,0,0-.06,0h-.3a.08.08,0,0,1-.09-.09V66.27h-.59v1.39s0,0,0,.06,0,0-.06,0H48s-.06,0-.06-.06Zm-1.31-.44a.63.63,0,0,0,.12-.33v-.3a.38.38,0,0,0-.12-.29.39.39,0,0,0-.3-.12c-.23,0-.38.15-.41.47v.21c0,.3.15.48.41.48A.33.33,0,0,0,46.67,67.25Zm-1,.29a.9.9,0,0,1-.21-.62v-.24a1,1,0,0,1,.21-.62.81.81,0,0,1,.56-.24.7.7,0,0,1,.54.24v-.8s0-.06,0-.06,0,0,.06,0h.29s.06,0,.06,0,0,0,0,.06v2.37s0,0,0,.06,0,0-.06,0h-.29a.08.08,0,0,1-.09-.09v-.14a.73.73,0,0,1-1.07.05s0,0,0,0Zm-1.13-.26a.48.48,0,0,0,.12-.36v-.3a.57.57,0,0,0-.12-.35.38.38,0,0,0-.29-.12.39.39,0,0,0-.3.12.47.47,0,0,0-.12.35v.27a.58.58,0,0,0,.12.36.39.39,0,0,0,.3.12.22.22,0,0,0,.29-.09Zm-1,.26a.79.79,0,0,1-.23-.59v-.3a.82.82,0,0,1,.23-.59.88.88,0,0,1,.66-.21,1,1,0,0,1,.65.21.83.83,0,0,1,.24.59V67a.8.8,0,0,1-.24.59,1.07,1.07,0,0,1-1.31,0Zm-1.16-.26a.48.48,0,0,0,.12-.36v-.3a.57.57,0,0,0-.12-.35.35.35,0,0,0-.29-.12.39.39,0,0,0-.3.12.47.47,0,0,0-.12.35v.27a.58.58,0,0,0,.12.36.37.37,0,0,0,.59,0Zm-1,.26a.83.83,0,0,1-.23-.59v-.3a.87.87,0,0,1,.23-.59,1,1,0,0,1,1.28,0,.83.83,0,0,1,.24.59V67a.8.8,0,0,1-.24.59,1,1,0,0,1-1.28,0Zm-1.24-.32a.63.63,0,0,0,.12-.3v-.24a.43.43,0,0,0-.12-.32.35.35,0,0,0-.3-.12c-.27,0-.38.15-.41.47v.09c0,.39.14.57.41.57a.48.48,0,0,0,.3-.15Zm-.8,1.19a.71.71,0,0,1-.27-.24.34.34,0,0,1-.09-.24s0,0,0-.06,0,0,.06,0h.39s0,0,0,.06a.24.24,0,0,0,.11.15.32.32,0,0,0,.24.06.37.37,0,0,0,.42-.27v-.38a.8.8,0,0,1-1.1,0,1.13,1.13,0,0,1-.21-.63v-.18a1,1,0,0,1,.21-.62.8.8,0,0,1,.56-.24,1.08,1.08,0,0,1,.33.06,1.66,1.66,0,0,1,.24.18v-.15s0-.06,0-.06,0,0,.06,0h.29s.06,0,.06,0,0,0,0,.06V67.6a.81.81,0,0,1-.21.63.84.84,0,0,1-.65.2,1,1,0,0,1-.56,0Z"/><path class="cls-1" d="M97,51.31H86.24v16.5H97l-3.47-7.75ZM1,51.31h10.8v16.5H1l3.47-7.75Z"/><path class="cls-1" d="M91.7,45.64l-5.46,5.64v16.5l5.46-5.43Zm-85.28,0,5.49,5.87v16.3L6.42,62.35Z"/><path class="cls-1" d="M49.52,7.26l1.75,3.53,3.92.56-2.82,2.76L53.05,18l-3.5-1.84L46.05,18l.68-3.89-2.85-2.76,3.92-.56Z"/><polygon class="cls-1" points="38.69 14.14 37.62 12.03 36.58 14.14 34.23 14.5 35.92 16.16 35.54 18.48 37.62 17.38 39.72 18.48 39.34 16.16 41.03 14.5 38.69 14.14"/><polygon class="cls-1" points="64.84 14.5 62.49 14.14 61.42 12.03 60.38 14.14 58.04 14.5 59.73 16.16 59.34 18.48 61.42 17.38 63.53 18.48 63.15 16.16 64.84 14.5"/><polygon class="cls-1" points="32.84 19.69 32.21 18.42 31.59 19.69 30.16 19.9 31.17 20.88 30.94 22.3 32.21 21.62 33.46 22.3 33.22 20.88 34.23 19.9 32.84 19.69"/><polygon class="cls-1" points="68.9 19.9 67.48 19.69 66.86 18.42 66.23 19.69 64.81 19.9 65.85 20.88 65.61 22.3 66.86 21.62 68.1 22.3 67.86 20.88 68.9 19.9"/><path class="cls-1" d="M39.72,50.3c0-.3-.2-.45-.53-.45h-.62v.92h.53C39.49,50.77,39.72,50.59,39.72,50.3Z"/><polygon class="cls-1" points="52.76 56.06 52.31 57.51 53.23 57.51 52.78 56.06 52.76 56.06"/><ellipse class="cls-1" cx="59.08" cy="51.07" rx="0.95" ry="1.22"/><path class="cls-1" d="M44.44,51c0-.77-.38-1.16-1-1.16h-.53v2.35h.53C44.09,52.23,44.44,51.81,44.44,51Z"/><path class="cls-1" d="M83,45.52c0-.28.06-.56.08-.83a5.36,5.36,0,0,1-.28.83H81.48a5.66,5.66,0,0,0,.9-2.17,14.42,14.42,0,0,0,.24-3.77c0,.3-.45,2.64-1.87,3.09A3.09,3.09,0,0,0,80,43c0-.69-.06-1.34-.12-2,1.18.14,1.78-1.31,1.93-2.94a13.06,13.06,0,0,0-.24-3.59c0,.17-.06,2.55-1.37,3.17a3.64,3.64,0,0,0-.68.45c-.09-.72-.24-1.4-.38-2.11v0c1.09,0,1.48-1.45,1.42-3a13.39,13.39,0,0,0-.65-3.38c0,.18.23,2.46-.89,3.2a4.9,4.9,0,0,0-.6.51c-.23-.74-.47-1.52-.74-2.29,1.07-.12,1.28-1.54,1-3.05a13.39,13.39,0,0,0-1-3.21A6,6,0,0,1,77.81,26,2.54,2.54,0,0,1,77.24,28a2.67,2.67,0,0,0-.53.62c-.36-.83-.74-1.66-1.16-2.49,1-.18,1-1.61.6-3.12a14.23,14.23,0,0,0-1.43-3.06,6.67,6.67,0,0,1,.39,1.25,2.56,2.56,0,0,1-.24,2,2,2,0,0,0-.45.8c-.89-1.58-1.87-3.21-3-4.84A43.6,43.6,0,0,1,74.13,24a2,2,0,0,0-.74,0C72.23,24.26,71,23,70.92,23c.51.71,1.07,1.42,1.66,2.11.78.89,1.73,1.69,2.53,1.18l.06.15c.35.77.68,1.52,1,2.29a2.9,2.9,0,0,0-.72,0,3.76,3.76,0,0,1-2.52-1.34c.45.77,1,1.55,1.48,2.29.78,1,1.7,2,2.68,1.48.26.77.5,1.55.74,2.35a2.4,2.4,0,0,0-.89-.18,4.15,4.15,0,0,1-2.53-1.69,27.27,27.27,0,0,0,1.31,2.52c.71,1.19,1.6,2.37,2.76,1.9.18.77.33,1.51.45,2.29a2.82,2.82,0,0,0-1-.36,4.87,4.87,0,0,1-2.47-2.11,22.87,22.87,0,0,0,1.07,2.79c.63,1.34,1.43,2.73,2.73,2.38,0,.15,0,.26,0,.41.06.57.06,1.13.09,1.72a3.48,3.48,0,0,0-1-.53C76.89,42,76.09,40,76.06,40c.21,1,.47,2,.77,3A6.56,6.56,0,0,0,78,45.52H76.72a8.1,8.1,0,0,1-.54-1.31s0,.54.12,1.31h-54a12.07,12.07,0,0,0,.11-1.43,11.14,11.14,0,0,1-.6,1.43h-1.4A5.49,5.49,0,0,0,21.73,43c.3-1,.57-2,.78-3.06,0,0-.83,2-2.32,2.55a3.81,3.81,0,0,0-1,.54c0-.6.06-1.16.09-1.73,0-.14,0-.26,0-.41,1.28.35,2.11-1,2.7-2.38a23.63,23.63,0,0,0,1.07-2.76,4.74,4.74,0,0,1-2.46,2.11,3.33,3.33,0,0,0-1,.33c.12-.75.26-1.52.44-2.26,1.13.45,2-.71,2.73-1.87a24.81,24.81,0,0,0,1.28-2.52,4.29,4.29,0,0,1-2.49,1.69,2.07,2.07,0,0,0-.86.18c.23-.77.47-1.58.74-2.35,1,.51,1.9-.47,2.64-1.48a22.67,22.67,0,0,0,1.45-2.29s-1.21,1.43-2.49,1.34a2.82,2.82,0,0,0-.71,0c.32-.74.65-1.52,1-2.29l.06-.15c.8.51,1.72-.29,2.52-1.18.59-.69,1.13-1.4,1.63-2.11,0,0-1.3,1.31-2.46,1.07a1.92,1.92,0,0,0-.71-.06A52.13,52.13,0,0,1,27.08,19a50.14,50.14,0,0,0-3,4.84,2.12,2.12,0,0,0-.45-.8,2.61,2.61,0,0,1-.23-2,6.62,6.62,0,0,1,.38-1.25,12.59,12.59,0,0,0-1.39,3C22,24.35,22,25.75,23,25.93c-.41.83-.8,1.66-1.13,2.49a3.47,3.47,0,0,0-.5-.62,2.54,2.54,0,0,1-.57-1.93A6,6,0,0,1,21,24.59a13.85,13.85,0,0,0-1,3.21c-.26,1.51-.06,2.94,1,3.05-.26.78-.5,1.52-.74,2.29a3,3,0,0,0-.59-.5c-1.16-.75-.92-3-.89-3.21a14.45,14.45,0,0,0-.66,3.38c-.06,1.58.33,3,1.43,3v0c-.15.71-.27,1.4-.39,2.11a3.2,3.2,0,0,0-.68-.42c-1.31-.59-1.37-3-1.34-3.14A13.46,13.46,0,0,0,16.87,38c.14,1.63.74,3.09,1.9,2.94-.06.65-.09,1.3-.12,2a3.42,3.42,0,0,0-.8-.36C16.42,42.1,16,39.76,16,39.46a14.6,14.6,0,0,0,.23,3.74,5.24,5.24,0,0,0,1,2.32h-1.4a6.58,6.58,0,0,1-.35-1c0,.32.05.63.1,1H6.3V62.26H20.1a14.23,14.23,0,0,0,1.37,1.54c1.6,1.61,3.68,2.59,4.54,1.19.3.36.62.71,1,1.07a3.31,3.31,0,0,0-1.19.3c-1.69.71-4.07-1.19-4.27-1.43A16.06,16.06,0,0,0,25,68.26c1.93,1.33,4.19,2,4.81.47a9.21,9.21,0,0,0,1.19.89,4,4,0,0,0-1.19.48c-1.54.92-4.31-.6-4.57-.77A16.85,16.85,0,0,0,29.39,72c2.23,1,4.6,1.21,5-.3.45.24.89.45,1.37.68a4,4,0,0,0-1.1.66c-1.43,1.15-4.46.14-4.81,0A16.09,16.09,0,0,0,34.56,75c2.43.59,4.93.38,5-1.16a26.72,26.72,0,0,0,8.76,1l0-.54a26.54,26.54,0,0,1-8.64-1c1-1.3-.65-2.58-2.22-3.83L34.14,67s2,2,1.78,3.74a3.18,3.18,0,0,0,0,1.19c-.44-.21-.89-.42-1.33-.66,1.16-1.12-.15-2.73-1.43-4.24s-2.7-3-2.7-3.06,1.49,2.35,1,4a3.19,3.19,0,0,0-.18,1.19c-.38-.3-.77-.57-1.15-.89,1.3-.92.35-2.76-.6-4.49-.31-.53-.61-1.06-.9-1.54H70c-.32.54-.69,1.15-1.05,1.78C68,65.76,67,67.6,68.37,68.52c-.39.33-.77.6-1.16.89A3.14,3.14,0,0,0,67,68.23c-.5-1.72,1-4.07,1-4.07s-1.36,1.51-2.73,3.06-2.61,3.11-1.42,4.24c-.42.24-.89.45-1.34.66a3.18,3.18,0,0,0,0-1.19c-.21-1.75,1.78-3.77,1.78-3.77S62.7,68.41,61,69.65s-3.27,2.55-2.26,3.86a27.19,27.19,0,0,1-8.73,1l.09.47a26.81,26.81,0,0,0,8.82-1c.12,1.54,2.61,1.75,5.08,1.15a17.22,17.22,0,0,0,4.72-2c-.33.15-3.42,1.16-4.84,0a5.66,5.66,0,0,0-1.1-.62c.44-.21.92-.44,1.36-.68.36,1.51,2.79,1.3,5,.3a17,17,0,0,0,4.16-2.71c-.3.21-3.06,1.73-4.63.81a4.64,4.64,0,0,0-1.19-.48c.41-.27.8-.59,1.19-.89.62,1.48,2.88.86,4.83-.48A17.26,17.26,0,0,0,77,65.11c-.21.21-2.64,2.14-4.31,1.45a4.55,4.55,0,0,0-1.21-.29c.35-.36.65-.71,1-1.07.86,1.42,2.93.41,4.57-1.19a14.6,14.6,0,0,0,1.59-1.75h13V45.52ZM21.79,49.91h-1v2.94H20V49.91H19v-.62h2.82Zm1.81,3a1.84,1.84,0,1,1,1.73-1.84A1.67,1.67,0,0,1,23.6,52.91Zm4.13,11.64a2.9,2.9,0,0,0-.38,1.15c-.33-.35-.66-.71-1-1.06.84-.44,1-1.33.82-2.38H28A4.16,4.16,0,0,1,27.73,64.55Zm.77-14a1.18,1.18,0,0,1-1.15,1.21h-.84v1.13h-.74V49.29h1.52a1.13,1.13,0,0,1,1.21,1.1Zm30.58-1.28a1.84,1.84,0,1,1-1.72,1.84A1.65,1.65,0,0,1,59.08,49.23Zm-4.22.06h.74v2.94h1.55v.62H54.86Zm-2.85,0h2.35v.62h-1.6v.86h1.51v.57H52.76v.89h1.6v.62H52Zm-9.88,0,1.36,0A1.57,1.57,0,0,1,45.19,51a1.59,1.59,0,0,1-1.7,1.78H42.13Zm-4.34,0h1.58c.68,0,1.1.35,1.1.89a.8.8,0,0,1-.66.77v0a.85.85,0,0,1,.83.86c0,.62-.47,1-1.21,1H37.79Zm-4.24,3.56h-.71l-.69-2.43h0l-.62,2.43h-.71l-.95-3.56h.77l.56,2.58h0l.66-2.58h.62l.65,2.58h0l.57-2.58h.77Zm1.36-3.56h2.35v.62h-1.6v.86h1.51v.57H35.66v.89h1.6v.62H34.91Zm3.48,9.05a.78.78,0,0,0,.83-.68h.71A1.45,1.45,0,0,1,38.36,59a1.85,1.85,0,0,1,0-3.69,1.49,1.49,0,0,1,1.57,1.34h-.71a.8.8,0,0,0-.83-.71c-.57,0-.92.47-.92,1.22S37.82,58.34,38.39,58.34ZM42,59a1.85,1.85,0,1,1,1.72-1.84A1.67,1.67,0,0,1,42,59Zm5.31-.06V56.5h0l-1,2.38h-.47l-1-2.38h0v2.41h-.65V55.34H45l1,2.53h0l1-2.53h.86l0,3.57Zm.75-9H46.43v.86H48v.57H46.43v.89H48v.62H45.69V49.29H48Zm1.15-.62.8,2.79h0l.81-2.79h.8l-1.19,3.56h-.89l-1.19-3.56Zm.86,8.49h-.83v1.13h-.74V55.34H50a1.14,1.14,0,0,1,1.22,1.1v.12A1.19,1.19,0,0,1,50.05,57.78Zm3.63,1.16-.27-.86H52.16l-.27.86h-.77l1.22-3.57h.89l1.25,3.57Zm4.18,0h-.62l-1.66-2.35h0v2.32l-.72,0V55.34h.63l1.66,2.32h0V55.34h.71Zm2.32-1.34v1.34h-.75V57.57l-1.24-2.23H59l.8,1.52h0l.8-1.52h.8ZM64,50.51a1.19,1.19,0,0,1-1.16,1.21H62v1.13h-.75V49.29h1.52A1.14,1.14,0,0,1,64,50.39Zm3.56,2.34v-2.4h0l-1,2.37h-.48l-1-2.37h0v2.4h-.65V49.29h.86l1,2.52h0l1-2.52h.86v3.56Zm1.24,0V49.29h2.35v.62h-1.6v.86H71v.57H69.53v.89h1.6v.62Zm2.41,13.09a3.19,3.19,0,0,0-.39-1.16,4.34,4.34,0,0,1-.22-2.52h.77c-.22,1.14-.13,2.13.79,2.61C71.84,65.23,71.52,65.59,71.19,65.94Zm3.5-13.09h-.62l-1.66-2.31h0v2.31h-.72V49.29h.63L74,51.6h0V49.29h.71Zm3.24-2.94h-1v2.94h-.74V49.91h-1v-.62h2.82Z"/><path class="cls-1" d="M49.91,55.94h-.63v1.27h.54a.64.64,0,0,0,.09-1.27Z"/><path class="cls-1" d="M39.87,51.78c0-.32-.24-.5-.68-.5h-.65v1h.68C39.63,52.32,39.87,52.14,39.87,51.78Z"/><path class="cls-1" d="M23.6,49.85c-.56,0-.94.51-.94,1.22s.38,1.22.94,1.22.95-.48.95-1.22S24.17,49.85,23.6,49.85Z"/><path class="cls-1" d="M42,55.91c-.59,0-.95.47-.95,1.22s.39,1.21.95,1.21,1-.47,1-1.21S42.54,55.91,42,55.91Z"/><path class="cls-1" d="M62.64,49.88H62v1.28h.53a.64.64,0,0,0,.09-1.28Z"/><path class="cls-1" d="M27.17,49.88h-.63v1.28h.54a.64.64,0,0,0,.09-1.28Z"/><line class="cls-7" x1="36.91" y1="40.21" x2="36.85" y2="40.26"/></svg>