<svg id="founded.svg" xmlns="http://www.w3.org/2000/svg" viewBox="0 0 98 87"><defs><style>.cls-1,.cls-3{fill:#fff;}.cls-1{fill-opacity:0;}.cls-2{fill:#2678bd;}.cls-3{opacity:0;}</style></defs><title>changeed</title><rect class="cls-1" width="98" height="87"/><path class="cls-2" d="M93.23,5.88V82.72H4.77V5.88H93.23m.5-.49H4.27V83.21H93.73V5.39Z"/><rect class="cls-3" x="4.27" y="3.79" width="89.47" height="79.42"/><path class="cls-2" d="M25.91,19.27A2.58,2.58,0,0,0,26,20c.07.19.16.39.27.62a.29.29,0,0,1,.06.19.34.34,0,0,1-.16.26l-.53.36a.43.43,0,0,1-.23.07.37.37,0,0,1-.25-.12,2.38,2.38,0,0,1-.31-.4,5.6,5.6,0,0,1-.26-.5,3.17,3.17,0,0,1-2.51,1.18,2.31,2.31,0,0,1-1.7-.62,2.41,2.41,0,0,1,.14-3.39A3.12,3.12,0,0,1,22.61,17a7.09,7.09,0,0,1,.9.07c.32.05.64.11,1,.19v-.62a1.89,1.89,0,0,0-.4-1.37,2,2,0,0,0-1.39-.39,4.27,4.27,0,0,0-.92.11,7.54,7.54,0,0,0-.92.29,1.44,1.44,0,0,1-.3.11l-.13,0c-.12,0-.18-.09-.18-.26v-.42a.56.56,0,0,1,.06-.3.62.62,0,0,1,.24-.18,4.74,4.74,0,0,1,1.07-.38A5.21,5.21,0,0,1,23,13.72a3.06,3.06,0,0,1,2.23.7,2.8,2.8,0,0,1,.71,2.09v2.76Zm-3.46,1.3a2.85,2.85,0,0,0,.88-.15,2.05,2.05,0,0,0,.81-.55,1.37,1.37,0,0,0,.28-.55,2.63,2.63,0,0,0,.09-.74v-.35a6.33,6.33,0,0,0-.78-.15,7.49,7.49,0,0,0-.81,0,2,2,0,0,0-1.27.34,1.22,1.22,0,0,0,.8,2.2Zm6.84.92A.47.47,0,0,1,29,21.4a.66.66,0,0,1-.18-.33l-2-6.59a1.15,1.15,0,0,1-.08-.34.19.19,0,0,1,.2-.21h.84a.47.47,0,0,1,.33.08.76.76,0,0,1,.17.34L29.68,20,31,14.35a.71.71,0,0,1,.17-.34.56.56,0,0,1,.34-.08h.68a.52.52,0,0,1,.34.08.6.6,0,0,1,.16.34l1.35,5.71,1.47-5.71a.81.81,0,0,1,.17-.34.58.58,0,0,1,.34-.08h.79a.19.19,0,0,1,.21.21.68.68,0,0,1,0,.14.57.57,0,0,1-.06.21L34.9,21.08a.62.62,0,0,1-.18.33.55.55,0,0,1-.32.09h-.74a.51.51,0,0,1-.34-.09.71.71,0,0,1-.16-.34l-1.32-5.5-1.31,5.49a.67.67,0,0,1-.16.34.53.53,0,0,1-.34.09Zm11,.23a5.81,5.81,0,0,1-1.32-.15,4.71,4.71,0,0,1-1-.34.68.68,0,0,1-.26-.24.52.52,0,0,1,0-.24v-.44c0-.18.06-.26.19-.26l.16,0,.21.09a4.5,4.5,0,0,0,.94.3,4.94,4.94,0,0,0,1,.1,2.29,2.29,0,0,0,1.25-.28.92.92,0,0,0,.44-.81.86.86,0,0,0-.23-.6,2.17,2.17,0,0,0-.86-.44l-1.24-.38a2.64,2.64,0,0,1-1.36-.87,2.07,2.07,0,0,1-.43-1.24A2,2,0,0,1,38,15a2.16,2.16,0,0,1,.62-.69,2.53,2.53,0,0,1,.88-.45,3.81,3.81,0,0,1,1.08-.14l.57,0,.55.1.49.13a1.54,1.54,0,0,1,.36.16.67.67,0,0,1,.25.21.47.47,0,0,1,.08.28V15c0,.18-.07.27-.2.27a.79.79,0,0,1-.32-.1,3.94,3.94,0,0,0-1.64-.33,2.21,2.21,0,0,0-1.13.24.81.81,0,0,0-.4.76.8.8,0,0,0,.25.6,2.69,2.69,0,0,0,.94.47l1.21.38a2.61,2.61,0,0,1,1.32.82,1.89,1.89,0,0,1,.39,1.19,2.12,2.12,0,0,1-.22,1,2.25,2.25,0,0,1-.62.75,2.58,2.58,0,0,1-.95.48A4,4,0,0,1,40.25,21.72Z"/><path class="cls-2" d="M41.86,25.86A18.42,18.42,0,0,1,31.47,29,18.75,18.75,0,0,1,18.8,24.2c-.27-.24,0-.56.29-.37a25.61,25.61,0,0,0,12.68,3.36,25.36,25.36,0,0,0,9.68-2C41.92,25,42.32,25.52,41.86,25.86ZM43,24.53c-.35-.46-2.37-.22-3.28-.11-.27,0-.31-.2-.07-.38,1.61-1.13,4.24-.8,4.55-.43s-.09,3-1.59,4.28c-.23.2-.45.1-.35-.16C42.62,26.89,43.38,25,43,24.53Z"/><path class="cls-2" d="M49.44,19.94V14.89h.36l0,.4a2.52,2.52,0,0,1,.63-.38,1.77,1.77,0,0,1,.64-.12,1.33,1.33,0,0,1,1.09.49,2.08,2.08,0,0,1,.4,1.36A2.13,2.13,0,0,1,52.18,18a1.38,1.38,0,0,1-1.13.53,1.78,1.78,0,0,1-1.2-.49v1.87ZM51,15.16a1.94,1.94,0,0,0-1.18.45V17.7a2,2,0,0,0,.57.37,1.46,1.46,0,0,0,.58.11,1,1,0,0,0,.88-.38,1.79,1.79,0,0,0,.3-1.13C52.18,15.66,51.8,15.16,51,15.16Z"/><path class="cls-2" d="M55.69,18.48l0-.42a2,2,0,0,1-1.28.5,1.06,1.06,0,0,1-.78-.29,1,1,0,0,1-.29-.75,1,1,0,0,1,.35-.82,1.46,1.46,0,0,1,1-.3,3.51,3.51,0,0,1,1,.17V16a.86.86,0,0,0-.2-.63,1.06,1.06,0,0,0-.69-.18,3.76,3.76,0,0,0-1.22.22v-.33a2.66,2.66,0,0,1,.62-.19,3.05,3.05,0,0,1,.67-.07,1.39,1.39,0,0,1,.93.26,1,1,0,0,1,.3.8v2.63Zm-1.27-.3a1.65,1.65,0,0,0,.59-.11,2.63,2.63,0,0,0,.63-.31v-.89a3.75,3.75,0,0,0-.92-.12c-.67,0-1,.25-1,.76a.65.65,0,0,0,.18.5A.7.7,0,0,0,54.42,18.18Z"/><path class="cls-2" d="M57.15,18.48V14.89h.35l0,.52a1.63,1.63,0,0,1,.53-.42,1.37,1.37,0,0,1,.58-.13l.3,0v.36l-.34,0a1.21,1.21,0,0,0-.58.13,1.56,1.56,0,0,0-.49.39v2.73Z"/><path class="cls-2" d="M61.56,18.4a1.87,1.87,0,0,1-.72.12.86.86,0,0,1-.64-.23.89.89,0,0,1-.22-.65V15.25h-.67V15L60,14.9l0-1.05h.34v1h1.14v.36H60.39v2.37a.56.56,0,0,0,.12.41.57.57,0,0,0,.42.13,2.39,2.39,0,0,0,.63-.09Z"/><path class="cls-2" d="M64.86,18.48V16a1.08,1.08,0,0,0-.17-.67.71.71,0,0,0-.57-.21,2.47,2.47,0,0,0-1.39.45v2.87h-.41V14.89h.36l0,.42a2.87,2.87,0,0,1,.73-.39,2.28,2.28,0,0,1,.75-.13,1,1,0,0,1,1.07,1.08v2.61Z"/><path class="cls-2" d="M66.59,16.75a1.71,1.71,0,0,0,.33,1.11,1.31,1.31,0,0,0,1,.35A2.84,2.84,0,0,0,69.09,18v.34a2.43,2.43,0,0,1-1.21.28,1.61,1.61,0,0,1-1.27-.48,2.06,2.06,0,0,1-.43-1.43,2.1,2.1,0,0,1,.43-1.39,1.52,1.52,0,0,1,1.21-.49,1.28,1.28,0,0,1,1,.37,1.49,1.49,0,0,1,.35,1.06,2.66,2.66,0,0,1,0,.53Zm1.19-1.6c-.75,0-1.14.42-1.19,1.27h2.17a1.55,1.55,0,0,0,0-.23,1.14,1.14,0,0,0-.25-.78A1,1,0,0,0,67.78,15.15Z"/><path class="cls-2" d="M70.06,18.48V14.89h.35l0,.52A1.63,1.63,0,0,1,71,15a1.38,1.38,0,0,1,.59-.13l.29,0v.36l-.34,0a1.21,1.21,0,0,0-.58.13,1.56,1.56,0,0,0-.49.39v2.73Z"/><path class="cls-2" d="M52,25.6V23.17a1,1,0,0,0-.18-.68.71.71,0,0,0-.57-.21,2.41,2.41,0,0,0-1.39.46V25.6h-.41V22h.36l0,.41a3.24,3.24,0,0,1,.74-.38,2.2,2.2,0,0,1,.74-.14,1.05,1.05,0,0,1,.8.28,1.09,1.09,0,0,1,.27.8V25.6Z"/><path class="cls-2" d="M53.72,23.88a1.57,1.57,0,0,0,.33,1.1,1.25,1.25,0,0,0,1,.36,2.77,2.77,0,0,0,1.17-.25v.33a2.4,2.4,0,0,1-1.2.29,1.63,1.63,0,0,1-1.28-.48,2.12,2.12,0,0,1-.43-1.43,2,2,0,0,1,.44-1.39,1.5,1.5,0,0,1,1.2-.5,1.28,1.28,0,0,1,1,.37,1.5,1.5,0,0,1,.34,1.06,2.7,2.7,0,0,1,0,.54Zm1.19-1.61c-.75,0-1.15.43-1.19,1.28h2.16a1.77,1.77,0,0,0,0-.24,1.05,1.05,0,0,0-.25-.77A.94.94,0,0,0,54.91,22.27Z"/><path class="cls-2" d="M59,25.52a1.93,1.93,0,0,1-.72.13.89.89,0,0,1-.65-.23.93.93,0,0,1-.22-.65v-2.4h-.67v-.28l.69-.07.06-1h.33v1H59v.35H57.83v2.38a.53.53,0,0,0,.13.41.57.57,0,0,0,.41.12A3,3,0,0,0,59,25.2Z"/><path class="cls-2" d="M62.73,25.6l-.9-3.13L61,25.6h-.44L59.29,22h.44l1,3.11L61.61,22h.48L63,25.15,64,22h.42L63.17,25.6Z"/><path class="cls-2" d="M66.52,25.71a1.51,1.51,0,0,1-1.21-.5,2.1,2.1,0,0,1-.44-1.4,2.06,2.06,0,0,1,.44-1.4,1.51,1.51,0,0,1,1.21-.5,1.53,1.53,0,0,1,1.22.5,2.06,2.06,0,0,1,.44,1.4,2.1,2.1,0,0,1-.44,1.4A1.53,1.53,0,0,1,66.52,25.71Zm0-.37c.83,0,1.24-.51,1.24-1.53s-.41-1.53-1.24-1.53-1.23.51-1.23,1.53S65.7,25.34,66.52,25.34Z"/><path class="cls-2" d="M69.1,25.6V22h.36l0,.52a2,2,0,0,1,.53-.43,1.41,1.41,0,0,1,.59-.12l.29,0v.36h-.33a1.34,1.34,0,0,0-.58.12,1.56,1.56,0,0,0-.49.39V25.6Z"/><path class="cls-2" d="M71.55,25.6V20.33H72v3.28L73.73,22h.56l-1.9,1.69,2,1.89h-.58L72,23.85V25.6Z"/><path class="cls-2" d="M25.8,61.28a6.07,6.07,0,0,1-2.21.39,4.11,4.11,0,0,1-3.17-1.17A5,5,0,0,1,19.35,57a5,5,0,0,1,1.11-3.48,4.15,4.15,0,0,1,3.2-1.2,5.3,5.3,0,0,1,2,.36v.68a7.92,7.92,0,0,0-1.92-.29,3.5,3.5,0,0,0-2.68.94,4,4,0,0,0-.88,2.82v.32c0,2.5,1.15,3.75,3.47,3.75a8.6,8.6,0,0,0,2.14-.33Z"/><path class="cls-2" d="M29.86,61.73a2.81,2.81,0,0,1-2.24-.93,4.51,4.51,0,0,1,0-5.13,2.8,2.8,0,0,1,2.24-.92,2.78,2.78,0,0,1,2.24.92,4.51,4.51,0,0,1,0,5.13A2.79,2.79,0,0,1,29.86,61.73Zm0-.69c1.51,0,2.27-.93,2.27-2.81s-.76-2.8-2.27-2.8-2.26.93-2.26,2.8S28.35,61,29.86,61Z"/><path class="cls-2" d="M39.27,61.53V57.05A1.93,1.93,0,0,0,39,55.82a1.3,1.3,0,0,0-1.05-.39,4.51,4.51,0,0,0-2.55.84v5.26H34.6V54.94h.65l.08.76a5.43,5.43,0,0,1,1.35-.7,4,4,0,0,1,1.38-.25,2,2,0,0,1,1.46.5,2,2,0,0,1,.5,1.49v4.79Z"/><path class="cls-2" d="M45.39,59.8a.83.83,0,0,0-.26-.6,2.38,2.38,0,0,0-.86-.47l-1.19-.45a1.81,1.81,0,0,1-1.4-1.71,1.63,1.63,0,0,1,.61-1.32,2.46,2.46,0,0,1,1.59-.5,4.68,4.68,0,0,1,1,.1,4.85,4.85,0,0,1,.91.29v.62a6.17,6.17,0,0,0-1.91-.34,1.71,1.71,0,0,0-1.07.28,1,1,0,0,0-.37.83.92.92,0,0,0,.26.69,3.45,3.45,0,0,0,1,.53l1.05.39a2.48,2.48,0,0,1,1.06.67,1.47,1.47,0,0,1,.34,1,1.73,1.73,0,0,1-.65,1.41,2.77,2.77,0,0,1-1.76.52,4.65,4.65,0,0,1-2.14-.48v-.61a6.5,6.5,0,0,0,2.19.42A2,2,0,0,0,45,60.74,1.12,1.12,0,0,0,45.39,59.8Z"/><path class="cls-2" d="M52.1,61.53,52,60.81a4.29,4.29,0,0,1-2.58.92A1.9,1.9,0,0,1,48,61.21a2,2,0,0,1-.51-1.49V54.94h.75v4.47a1.93,1.93,0,0,0,.33,1.25,1.27,1.27,0,0,0,1,.38,3.7,3.7,0,0,0,1.21-.19,5.45,5.45,0,0,0,1.2-.64V54.94h.75v6.59Z"/><path class="cls-2" d="M56.58,61.48a2.63,2.63,0,0,1-.67.09,1.07,1.07,0,0,1-.82-.31,1.21,1.21,0,0,1-.29-.86V51.84h.75v8.55a.58.58,0,0,0,.11.41.51.51,0,0,0,.39.11l.53,0Z"/><path class="cls-2" d="M61.42,61.39a3.64,3.64,0,0,1-1.32.22,1.61,1.61,0,0,1-1.18-.41,1.66,1.66,0,0,1-.4-1.2V55.6H57.29v-.52L58.54,55,58.65,53h.61v1.91h2.1v.66h-2.1V60a1,1,0,0,0,.23.76,1.07,1.07,0,0,0,.77.22,4.54,4.54,0,0,0,1.16-.16Z"/><path class="cls-2" d="M63.24,53.53a.53.53,0,0,1-.41-.16.56.56,0,0,1-.15-.41.57.57,0,0,1,.15-.42.53.53,0,0,1,.41-.16.51.51,0,0,1,.41.16.57.57,0,0,1,.15.42.56.56,0,0,1-.15.41A.51.51,0,0,1,63.24,53.53Zm-.38,8V54.94h.75v6.59Z"/><path class="cls-2" d="M70.38,61.53V57.05a1.87,1.87,0,0,0-.33-1.23,1.3,1.3,0,0,0-1-.39,4.51,4.51,0,0,0-2.55.84v5.26H65.7V54.94h.66l.08.76a5.2,5.2,0,0,1,1.34-.7,4.08,4.08,0,0,1,1.38-.25,2,2,0,0,1,1.46.5,2,2,0,0,1,.5,1.49v4.79Z"/><path class="cls-2" d="M77.77,60.56a4,4,0,0,1-1.07.64,3,3,0,0,1-1.13.24,2.5,2.5,0,0,1-2-.9,3.53,3.53,0,0,1-.76-2.37,3.82,3.82,0,0,1,.75-2.5,2.49,2.49,0,0,1,2-.92,3.14,3.14,0,0,1,2.19.88l.07-.69h.66v6.29a3.21,3.21,0,0,1-.79,2.35,3,3,0,0,1-2.27.8,4.37,4.37,0,0,1-2.14-.49v-.62a5.67,5.67,0,0,0,2.1.43,2.35,2.35,0,0,0,1.78-.6,2.68,2.68,0,0,0,.57-1.9Zm-2,.2a3.28,3.28,0,0,0,2-.84V56.28a4.15,4.15,0,0,0-1-.65,2.89,2.89,0,0,0-1.06-.2,1.88,1.88,0,0,0-1.58.68,3.27,3.27,0,0,0-.53,2,3,3,0,0,0,.56,1.95A2,2,0,0,0,75.74,60.76Z"/><path class="cls-2" d="M20.36,70.93v3.69h-.75V65.55h3.13a2.67,2.67,0,0,1,2,.73,3,3,0,0,1,0,3.92,2.71,2.71,0,0,1-2,.73Zm0-.7h2.35a1.73,1.73,0,0,0,1.94-2c0-1.34-.64-2-1.94-2H20.36Z"/><path class="cls-2" d="M31,74.62l-.07-.76a3.71,3.71,0,0,1-2.35.9,2,2,0,0,1-1.44-.51,2.06,2.06,0,0,1,.13-2.89A2.65,2.65,0,0,1,29,70.81a6.49,6.49,0,0,1,1.87.3V70a1.49,1.49,0,0,0-.38-1.14,1.84,1.84,0,0,0-1.26-.35,6.72,6.72,0,0,0-2.23.42v-.62A5.46,5.46,0,0,1,28.12,68a5.85,5.85,0,0,1,1.23-.13,2.57,2.57,0,0,1,1.71.48,1.86,1.86,0,0,1,.56,1.47v4.83Zm-2.32-.54a3.19,3.19,0,0,0,1.08-.2,5.4,5.4,0,0,0,1.16-.57V71.67a6.81,6.81,0,0,0-1.7-.23q-1.83,0-1.83,1.41a1.21,1.21,0,0,0,.32.92A1.35,1.35,0,0,0,28.63,74.08Z"/><path class="cls-2" d="M33.63,74.62V68h.66l.07.95a3.63,3.63,0,0,1,1-.78A2.52,2.52,0,0,1,36.42,68c.15,0,.33,0,.54,0v.67l-.62,0a2.44,2.44,0,0,0-1.07.23,2.74,2.74,0,0,0-.89.72v5Z"/><path class="cls-2" d="M41.75,74.48a3.72,3.72,0,0,1-1.32.22,1.6,1.6,0,0,1-1.18-.41,1.66,1.66,0,0,1-.41-1.2v-4.4H37.61v-.52l1.26-.12.1-1.93h.62V68h2.09v.65H39.59v4.36a1,1,0,0,0,.23.76,1.06,1.06,0,0,0,.76.22,4.62,4.62,0,0,0,1.17-.16Z"/><path class="cls-2" d="M47.81,74.62V70.14a1.87,1.87,0,0,0-.33-1.23,1.3,1.3,0,0,0-1-.39,4.51,4.51,0,0,0-2.55.84v5.26h-.74V68h.65l.08.75a5.43,5.43,0,0,1,1.35-.7,4,4,0,0,1,1.37-.25,1.76,1.76,0,0,1,2,2v4.79Z"/><path class="cls-2" d="M51,71.45a3,3,0,0,0,.6,2,2.32,2.32,0,0,0,1.82.66,5.37,5.37,0,0,0,2.16-.46v.61a4.43,4.43,0,0,1-2.21.53A3,3,0,0,1,51,73.93a4.64,4.64,0,0,1,0-5.18,2.78,2.78,0,0,1,2.22-.91,2.4,2.4,0,0,1,1.83.68,2.76,2.76,0,0,1,.63,2,4.55,4.55,0,0,1-.08,1Zm2.19-2.94q-2.07,0-2.19,2.34h4c0-.12,0-.27,0-.43A2,2,0,0,0,54.52,69,1.76,1.76,0,0,0,53.18,68.51Z"/><path class="cls-2" d="M57.35,74.62V68H58l.07.95a3.63,3.63,0,0,1,1-.78A2.52,2.52,0,0,1,60.14,68c.15,0,.33,0,.54,0v.67l-.62,0a2.44,2.44,0,0,0-1.07.23,2.74,2.74,0,0,0-.89.72v5Z"/><path class="cls-2" d="M19.78,46.08a1.75,1.75,0,0,1-.78-.5,1.12,1.12,0,0,1-.25-.74,1.14,1.14,0,0,1,.43-.92,1.79,1.79,0,0,1,1.15-.35,3.47,3.47,0,0,1,1.18.22v.71a3.59,3.59,0,0,0-1.11-.19c-.48,0-.72.16-.72.47a.36.36,0,0,0,.12.28,1.45,1.45,0,0,0,.47.23l.46.17a1.91,1.91,0,0,1,.81.49,1,1,0,0,1,.25.73,1.24,1.24,0,0,1-.46,1,2,2,0,0,1-1.25.36,4,4,0,0,1-.69-.06,2.41,2.41,0,0,1-.59-.18v-.7a6.38,6.38,0,0,0,.66.15,3.9,3.9,0,0,0,.63.06,1,1,0,0,0,.56-.14.41.41,0,0,0,.2-.38.41.41,0,0,0-.12-.3,1.72,1.72,0,0,0-.48-.24Z"/><path class="cls-2" d="M24.35,47.86a2.12,2.12,0,0,1-.74.13,1,1,0,0,1-.77-.25,1,1,0,0,1-.25-.76V45.46h-.47v-.55l.5-.1.13-.86h.74v.85h.85v.66h-.85v1.48a.31.31,0,0,0,.1.27.47.47,0,0,0,.33.08l.43,0Z"/><path class="cls-2" d="M26.71,47.94l-.07-.28a1.57,1.57,0,0,1-.44.28,1.48,1.48,0,0,1-.49.1,1,1,0,0,1-.72-.26.88.88,0,0,1-.28-.69.91.91,0,0,1,.15-.52,1,1,0,0,1,.42-.35,1.53,1.53,0,0,1,.66-.13,3.28,3.28,0,0,1,.65.08v-.31a.5.5,0,0,0-.12-.39.66.66,0,0,0-.43-.1,3.59,3.59,0,0,0-1.11.19V45a2.25,2.25,0,0,1,.57-.18,3.26,3.26,0,0,1,.7-.07,1.42,1.42,0,0,1,.93.25,1,1,0,0,1,.29.8v2.18ZM26,47.43a.89.89,0,0,0,.31-.06,1.44,1.44,0,0,0,.31-.19v-.53a3,3,0,0,0-.49,0c-.35,0-.53.15-.53.44a.39.39,0,0,0,.1.29A.4.4,0,0,0,26,47.43Z"/><path class="cls-2" d="M30.28,47.94V45.88a.5.5,0,0,0-.11-.37.44.44,0,0,0-.34-.12,1.25,1.25,0,0,0-.67.21v2.34h-.89V44.8H29l.09.34a1.87,1.87,0,0,1,1.18-.43.9.9,0,0,1,.67.23.91.91,0,0,1,.24.68v2.32Z"/><path class="cls-2" d="M34.15,47.94l-.08-.28a1.29,1.29,0,0,1-.9.35,1.19,1.19,0,0,1-.68-.2,1.23,1.23,0,0,1-.46-.56,2.14,2.14,0,0,1-.16-.87,1.94,1.94,0,0,1,.36-1.22,1.17,1.17,0,0,1,1-.45A1.36,1.36,0,0,1,34,45V43.39h.9v4.55Zm-.68-.61a1.07,1.07,0,0,0,.56-.17V45.54a1.13,1.13,0,0,0-.61-.16.53.53,0,0,0-.48.24,1.36,1.36,0,0,0-.16.74,1.21,1.21,0,0,0,.17.73A.58.58,0,0,0,33.47,47.33Z"/><path class="cls-2" d="M37.59,47.94l-.07-.28a1.57,1.57,0,0,1-.44.28,1.48,1.48,0,0,1-.49.1,1,1,0,0,1-.72-.26.88.88,0,0,1-.28-.69.91.91,0,0,1,.15-.52,1,1,0,0,1,.42-.35,1.53,1.53,0,0,1,.66-.13,3.28,3.28,0,0,1,.65.08v-.31a.5.5,0,0,0-.12-.39.66.66,0,0,0-.43-.1,3.59,3.59,0,0,0-1.11.19V45a2.25,2.25,0,0,1,.57-.18,3.26,3.26,0,0,1,.7-.07A1.37,1.37,0,0,1,38,45a1,1,0,0,1,.3.8v2.18Zm-.74-.51a.89.89,0,0,0,.31-.06,1.44,1.44,0,0,0,.31-.19v-.53a3,3,0,0,0-.49,0c-.35,0-.53.15-.53.44a.39.39,0,0,0,.1.29A.4.4,0,0,0,36.85,47.43Z"/><path class="cls-2" d="M39.15,47.94V44.8h.73l.11.46a1.86,1.86,0,0,1,.47-.38.92.92,0,0,1,.46-.11,1.1,1.1,0,0,1,.25,0v.83a1.53,1.53,0,0,0-.38,0,2,2,0,0,0-.75.14v2.22Z"/><path class="cls-2" d="M43.76,47.94l-.08-.28a1.29,1.29,0,0,1-.9.35,1.19,1.19,0,0,1-.68-.2,1.23,1.23,0,0,1-.46-.56,2.14,2.14,0,0,1-.16-.87,1.94,1.94,0,0,1,.36-1.22,1.17,1.17,0,0,1,1-.45,1.36,1.36,0,0,1,.84.27V43.39h.9v4.55Zm-.69-.61a1.08,1.08,0,0,0,.57-.17V45.54a1.13,1.13,0,0,0-.61-.16.52.52,0,0,0-.48.24,1.36,1.36,0,0,0-.16.74,1.3,1.3,0,0,0,.16.73A.61.61,0,0,0,43.07,47.33Z"/><rect class="cls-2" x="4.27" y="3.79" width="89.46" height="2.28"/></svg>