<svg width="16" height="16" viewBox="0 0 16 16" fill="none" xmlns="http://www.w3.org/2000/svg">
<path fill-rule="evenodd" clip-rule="evenodd" d="M14.8334 9.0821C14.8915 8.72971 14.9213 8.37273 14.9224 8.01559C14.9197 6.12673 14.1671 4.31643 12.8297 2.98184C11.4923 1.64725 9.67952 0.897883 7.78961 0.898179C7.42859 0.899256 7.06826 0.929047 6.71194 0.987099C5.95312 0.331959 4.97838 -0.0195962 3.97585 0.000843759C2.97332 0.0212837 2.0138 0.412183 1.28235 1.09771C0.550902 1.78323 0.0993031 2.71521 0.0145331 3.71381C-0.0702369 4.7124 0.21796 5.70669 0.823397 6.50558C0.711925 7.00122 0.655866 7.50758 0.656579 8.01559C0.655702 8.95202 0.839843 9.8797 1.19799 10.745C1.55614 11.6103 2.08132 12.3964 2.74384 13.0586C3.40636 13.7207 4.19315 14.2459 5.05895 14.6038C5.92474 14.9618 6.85266 15.1458 7.78961 15.1449C8.28648 15.1494 8.78204 15.097 9.2671 14.9893C10.001 15.643 10.9507 16.003 11.9337 16C12.7353 15.9993 13.5188 15.7619 14.1859 15.3179C14.8531 14.8739 15.3743 14.2426 15.684 13.5037C15.9938 12.7648 16.0781 11.9514 15.9268 11.1647C15.7755 10.378 15.3951 9.65357 14.8334 9.0821ZM11.1116 11.1251C10.801 11.5502 10.372 11.8744 9.87822 12.0577C9.26795 12.303 8.6137 12.4203 7.95616 12.402C7.1956 12.4303 6.43986 12.2702 5.75633 11.9357C5.3575 11.7226 5.01495 11.4184 4.7565 11.0476C4.5199 10.7366 4.38409 10.3605 4.36753 9.97021C4.36594 9.87147 4.38609 9.77355 4.42639 9.68339C4.4667 9.59323 4.52615 9.51277 4.60081 9.44808C4.67868 9.37298 4.77108 9.31493 4.87233 9.27674C4.97358 9.23856 5.08158 9.22136 5.18969 9.22632C5.36729 9.22185 5.54059 9.28081 5.67848 9.39277C5.8269 9.5335 5.94429 9.70393 6.02297 9.89268C6.1173 10.129 6.24053 10.3523 6.38969 10.5585C6.53886 10.7484 6.73384 10.8976 6.95633 10.9917C7.25682 11.1239 7.58372 11.1849 7.91167 11.1696C8.37366 11.1919 8.83153 11.0716 9.22289 10.8253C9.37579 10.7374 9.50329 10.6116 9.59287 10.4598C9.68246 10.308 9.73102 10.1351 9.73392 9.95883C9.73901 9.83261 9.71675 9.70702 9.66882 9.59013C9.62089 9.47325 9.54842 9.36797 9.45616 9.28162C9.25561 9.10033 9.01603 8.96727 8.75607 8.89287C8.4672 8.80404 8.07828 8.70436 7.58943 8.60442C7.03355 8.49695 6.49009 8.33331 5.96736 8.1159C5.56473 7.95003 5.20974 7.6868 4.93417 7.34978C4.66504 7.00947 4.52694 6.58383 4.5452 6.15044C4.53969 5.71369 4.6806 5.28782 4.94529 4.94026C5.25249 4.56086 5.66083 4.27574 6.12306 4.11828C6.70581 3.92055 7.31865 3.82659 7.93391 3.84068C8.41865 3.82728 8.90248 3.89091 9.36719 4.02936C9.73307 4.1298 10.0762 4.29964 10.3781 4.52927C10.6149 4.70435 10.8118 4.92748 10.9559 5.18424C11.0733 5.39121 11.1383 5.62363 11.145 5.86145C11.1445 5.96149 11.1235 6.06041 11.0834 6.15206C11.0433 6.24372 10.9849 6.32617 10.9117 6.39443C10.8388 6.47454 10.7494 6.53822 10.6497 6.5804C10.5499 6.62258 10.4422 6.64249 10.3339 6.63896C10.1624 6.65094 9.99217 6.5997 9.85598 6.49473C9.72194 6.35442 9.60642 6.19781 9.51177 6.02844C9.37293 5.73995 9.16721 5.48854 8.91177 5.29539C8.58397 5.08917 8.19775 4.99533 7.81185 5.02863C7.41035 5.01086 7.01241 5.11152 6.66745 5.31762C6.54217 5.38267 6.43618 5.4796 6.36013 5.59848C6.28408 5.71736 6.24049 5.85387 6.234 5.99483C6.23274 6.15306 6.28803 6.30673 6.38969 6.42804C6.49612 6.56226 6.63316 6.66866 6.78951 6.73872C6.95663 6.82514 7.13141 6.89571 7.31167 6.94964C7.48943 6.99405 7.77835 7.06115 8.18943 7.16109C8.68939 7.27213 9.15602 7.38298 9.5671 7.51623C9.9354 7.632 10.2868 7.79624 10.6117 8.00475C10.8964 8.17775 11.13 8.42309 11.2893 8.71557C11.4621 9.03961 11.5464 9.40315 11.5337 9.77014C11.5424 10.2554 11.3945 10.7307 11.1116 11.1251Z" fill="white"/>
</svg>
