<svg width="16" height="16" viewBox="0 0 16 16" fill="none" xmlns="http://www.w3.org/2000/svg">
<g>
<path d="M1.26533 3.06181L7.02848 7.62684C7.28981 7.83361 7.64994 7.92551 7.99972 7.90828C8.34894 7.92551 8.70906 7.83418 8.9704 7.62684L14.7335 3.06181C15.1953 2.69824 15.0908 2.40015 14.5049 2.40015H8.0003H1.49565C0.909226 2.40015 0.804692 2.69824 1.26533 3.06181Z" fill="white"/>
<path d="M15.1499 4.26617L8.85207 9.04773C8.61658 9.22464 8.30815 9.31079 8.00086 9.30677C7.693 9.31079 7.38457 9.22406 7.14908 9.04773L0.850056 4.26617C0.382525 3.91179 0 4.1019 0 4.68833V12.5335C0 13.12 0.480167 13.6001 1.06659 13.6001H7.99971H14.9334C15.5198 13.6001 16 13.12 16 12.5335V4.68833C16 4.1019 15.6175 3.91179 15.1499 4.26617Z" fill="white"/>
</g>
</svg>
