<svg width="50" height="50" viewBox="0 0 50 50" fill="none" xmlns="http://www.w3.org/2000/svg">
<path d="M48.8876 3.40123C48.7618 3.25191 48.5818 3.15865 48.3873 3.14205L37.5057 2.21266L37.3084 0.644492C37.2576 0.241074 36.8886 -0.0448631 36.4861 0.00582052L26.3917 1.27496C26.352 1.26461 26.3112 1.2568 26.2689 1.25318L12.3942 0.0680275C11.9947 0.0328713 11.632 0.340098 11.5981 0.738828L11.3912 3.1607L0.644247 4.51187C0.246591 4.56187 -0.0443269 4.93619 0.00557546 5.33414L5.49132 48.9677C5.51622 49.1667 5.47354 49.358 5.55489 49.5504C5.66895 49.8201 5.94044 50 6.23331 50H42.3572C42.764 50 43.0935 49.6706 43.0935 49.2638V48.3049L44.5193 48.4267C44.9188 48.4614 45.2815 48.1548 45.3155 47.7559L49.058 3.93844C49.0747 3.74381 49.0135 3.55064 48.8876 3.40123ZM5.49708 37.2092L1.5585 5.88092L5.49708 5.3858V37.2092ZM13.0025 1.59781L19.4459 2.14811L12.8852 2.97301L13.0025 1.59781ZM35.9394 1.55865L36.3155 4.55055H12.1406L35.9394 1.55865ZM43.9111 46.8969L43.0935 46.8271V25.312C43.0935 24.9053 42.764 24.5757 42.3572 24.5757C41.9505 24.5757 41.621 24.9052 41.621 25.312V48.5275H6.96954V6.02301H41.6211V21.8763C41.6211 22.2831 41.9506 22.6126 42.3573 22.6126C42.7641 22.6126 43.0936 22.2831 43.0936 21.8763V5.28678C43.0936 4.88014 42.7641 4.55055 42.3573 4.55055H37.7996L37.6935 3.7065L47.5283 4.54654L43.9111 46.8969Z" fill="#0071B3"/>
<path d="M38.4308 8.47705H34.5043C34.2581 8.47705 34.0282 8.6 33.8918 8.80488L32.2254 11.3045C30.4317 10.0196 28.2357 9.2623 25.866 9.2623C25.4594 9.2623 25.1298 9.5918 25.1298 9.99854V20.2075C25.1298 20.6142 25.4593 20.9437 25.866 20.9437H36.075C36.4817 20.9437 36.8112 20.6143 36.8112 20.2075C36.8112 17.073 35.4864 14.2426 33.3678 12.2453L34.8984 9.94951H38.4309C38.8376 9.94951 39.1672 9.62002 39.1672 9.21328C39.1672 8.80654 38.8375 8.47705 38.4308 8.47705ZM35.3104 19.4713H26.6022V10.7631C28.3877 10.901 30.0348 11.5377 31.4075 12.5313L30.7506 13.5168C30.5454 13.8244 30.6055 14.2505 30.8889 14.4885C31.2208 14.7672 31.7355 14.6937 31.9757 14.3336L32.5379 13.4902C34.1032 15.0451 35.1303 17.1412 35.3104 19.4713Z" fill="#0071B3"/>
<path d="M38.4308 32.8214H31.7712L30.5977 30.944C32.4986 28.9743 33.6699 26.2958 33.6699 23.3488C33.6699 22.942 33.3404 22.6125 32.9337 22.6125H23.4609V13.1398C23.4609 12.7332 23.1313 12.4036 22.7247 12.4036C16.6895 12.4036 11.7795 17.3136 11.7795 23.3488C11.7795 29.3839 16.6895 34.294 22.7247 34.294C25.2758 34.294 27.6256 33.4167 29.4888 31.948L30.7388 33.948C30.8733 34.1632 31.1093 34.294 31.3631 34.294H38.4308C38.8375 34.294 39.1671 33.9645 39.1671 33.5578C39.1671 33.151 38.8375 32.8214 38.4308 32.8214ZM28.061 26.8851C27.8456 26.5401 27.3912 26.4354 27.0465 26.6509C26.7017 26.8664 26.5968 27.3207 26.8123 27.6655L28.7033 30.6911C27.0716 32.0222 24.9898 32.8216 22.7248 32.8216C17.5016 32.8216 13.252 28.5721 13.252 23.3489C13.252 18.3733 17.108 14.2814 21.9886 13.9044V23.3489C21.9886 23.7555 22.3182 24.0851 22.7248 24.0851H32.1692C32.0048 26.2141 31.1333 28.148 29.7901 29.6519L28.061 26.8851Z" fill="#0071B3"/>
<path d="M16.4422 36.748H10.1598C9.75327 36.748 9.42358 37.0775 9.42358 37.4843C9.42358 37.891 9.75317 38.2205 10.1598 38.2205H16.4422C16.8489 38.2205 17.1785 37.891 17.1785 37.4843C17.1785 37.0775 16.8489 36.748 16.4422 36.748Z" fill="#0071B3"/>
<path d="M25.866 36.748H19.5836C19.1769 36.748 18.8474 37.0775 18.8474 37.4843C18.8474 37.891 19.1769 38.2205 19.5836 38.2205H25.866C26.2726 38.2205 26.6022 37.891 26.6022 37.4843C26.6022 37.0775 26.2726 36.748 25.866 36.748Z" fill="#0071B3"/>
<path d="M20.3688 40.6746H10.1598C9.75327 40.6746 9.42358 41.0041 9.42358 41.4108C9.42358 41.8175 9.75317 42.147 10.1598 42.147H20.3688C20.7754 42.147 21.105 41.8175 21.105 41.4108C21.105 41.0041 20.7753 40.6746 20.3688 40.6746Z" fill="#0071B3"/>
<path d="M25.866 40.6746H23.51C23.1035 40.6746 22.7738 41.0041 22.7738 41.4108C22.7738 41.8175 23.1034 42.147 23.51 42.147H25.866C26.2726 42.147 26.6022 41.8175 26.6022 41.4108C26.6021 41.0041 26.2726 40.6746 25.866 40.6746Z" fill="#0071B3"/>
<path d="M13.301 44.6011H10.1598C9.75327 44.6011 9.42358 44.9306 9.42358 45.3373C9.42358 45.744 9.75317 46.0735 10.1598 46.0735H13.301C13.7077 46.0735 14.0373 45.744 14.0373 45.3373C14.0373 44.9306 13.7077 44.6011 13.301 44.6011Z" fill="#0071B3"/>
<path d="M25.866 44.6011H16.4424C16.0359 44.6011 15.7062 44.9306 15.7062 45.3373C15.7062 45.744 16.0358 46.0735 16.4424 46.0735H25.866C26.2727 46.0735 26.6023 45.744 26.6023 45.3373C26.6023 44.9306 26.2727 44.6011 25.866 44.6011Z" fill="#0071B3"/>
</svg>
